NotoSerifNyiakengPuachueHmong-SemiBold.ufo
<glyph name="ma-hmnp" format="2">
	<unicode hex="1E100"/>
	<advance width="653"/>
	<outline>
		<contour>
			<point x="79" y="0" type="line"/>
			<point x="148" y="0" type="line"/>
			<point x="148" y="462" type="line" smooth="yes"/>
			<point x="148" y="523"/>
			<point x="171" y="548"/>
			<point x="239" y="548" type="curve" smooth="yes"/>
			<point x="361" y="548" type="line" smooth="yes"/>
			<point x="413" y="548"/>
			<point x="437" y="549"/>
			<point x="467" y="553" type="curve"/>
			<point x="467" y="548" type="line"/>
			<point x="447" y="534"/>
			<point x="434" y="508"/>
			<point x="434" y="471" type="curve" smooth="yes"/>
			<point x="434" y="422"/>
			<point x="457" y="371"/>
			<point x="482" y="321" type="curve" smooth="yes"/>
			<point x="505" y="274"/>
			<point x="526" y="228"/>
			<point x="526" y="188" type="curve" smooth="yes"/>
			<point x="526" y="142"/>
			<point x="509" y="129"/>
			<point x="435" y="129" type="curve" smooth="yes"/>
			<point x="358" y="129"/>
			<point x="338" y="140"/>
			<point x="338" y="170" type="curve" smooth="yes"/>
			<point x="338" y="200"/>
			<point x="364" y="208"/>
			<point x="427" y="208" type="curve"/>
			<point x="427" y="270"/>
			<point x="411" y="305"/>
			<point x="368" y="305" type="curve" smooth="yes"/>
			<point x="321" y="305"/>
			<point x="274" y="263"/>
			<point x="274" y="158" type="curve" smooth="yes"/>
			<point x="274" y="53"/>
			<point x="319" y="-10"/>
			<point x="436" y="-10" type="curve" smooth="yes"/>
			<point x="541" y="-10"/>
			<point x="597" y="42"/>
			<point x="597" y="167" type="curve" smooth="yes"/>
			<point x="597" y="240"/>
			<point x="569" y="304"/>
			<point x="542" y="359" type="curve" smooth="yes"/>
			<point x="520" y="404"/>
			<point x="502" y="445"/>
			<point x="502" y="485" type="curve" smooth="yes"/>
			<point x="502" y="531"/>
			<point x="519" y="549"/>
			<point x="574" y="559" type="curve"/>
			<point x="574" y="680" type="line"/>
			<point x="256" y="680" type="line" smooth="yes"/>
			<point x="130" y="680"/>
			<point x="79" y="624"/>
			<point x="79" y="476" type="curve" smooth="yes"/>
		</contour>
	</outline>
	<anchor name="top" x="337" y="680"/>
</glyph>
<glyph name="tsa-hmnp" format="2">
	<unicode hex="1E101"/>
	<advance width="698"/>
	<outline>
		<contour>
			<point x="348" y="-10" type="curve" smooth="yes"/>
			<point x="556" y="-10"/>
			<point x="621" y="41"/>
			<point x="621" y="220" type="curve" smooth="yes"/>
			<point x="621" y="497" type="line" smooth="yes"/>
			<point x="621" y="635"/>
			<point x="571" y="692"/>
			<point x="472" y="692" type="curve" smooth="yes"/>
			<point x="401" y="692"/>
			<point x="363" y="663"/>
			<point x="347" y="605" type="curve"/>
			<point x="342" y="605" type="line"/>
			<point x="325" y="663"/>
			<point x="281" y="692"/>
			<point x="213" y="692" type="curve" smooth="yes"/>
			<point x="118" y="692"/>
			<point x="63" y="636"/>
			<point x="63" y="518" type="curve" smooth="yes"/>
			<point x="63" y="425"/>
			<point x="103" y="376"/>
			<point x="155" y="376" type="curve" smooth="yes"/>
			<point x="198" y="376"/>
			<point x="220" y="409"/>
			<point x="220" y="474" type="curve"/>
			<point x="145" y="474"/>
			<point x="127" y="485"/>
			<point x="127" y="512" type="curve" smooth="yes"/>
			<point x="127" y="544"/>
			<point x="153" y="554"/>
			<point x="216" y="554" type="curve" smooth="yes"/>
			<point x="296" y="554"/>
			<point x="310" y="537"/>
			<point x="310" y="473" type="curve" smooth="yes"/>
			<point x="310" y="53" type="line"/>
			<point x="379" y="53" type="line"/>
			<point x="379" y="472" type="line" smooth="yes"/>
			<point x="379" y="537"/>
			<point x="400" y="554"/>
			<point x="465" y="554" type="curve" smooth="yes"/>
			<point x="531" y="554"/>
			<point x="552" y="538"/>
			<point x="552" y="472" type="curve" smooth="yes"/>
			<point x="552" y="239" type="line" smooth="yes"/>
			<point x="552" y="144"/>
			<point x="514" y="129"/>
			<point x="346" y="129" type="curve" smooth="yes"/>
			<point x="180" y="129"/>
			<point x="138" y="148"/>
			<point x="138" y="222" type="curve" smooth="yes"/>
			<point x="138" y="242"/>
			<point x="139" y="257"/>
			<point x="145" y="274" type="curve"/>
			<point x="138" y="277"/>
			<point x="134" y="278"/>
			<point x="128" y="278" type="curve" smooth="yes"/>
			<point x="92" y="278"/>
			<point x="69" y="234"/>
			<point x="69" y="169" type="curve" smooth="yes"/>
			<point x="69" y="42"/>
			<point x="149" y="-10"/>
		</contour>
	</outline>
	<anchor name="top" x="341" y="680"/>
</glyph>
<glyph name="nta-hmnp" format="2">
	<unicode hex="1E102"/>
	<advance width="707"/>
	<outline>
		<contour>
			<point x="81" y="0" type="line"/>
			<point x="150" y="0" type="line"/>
			<point x="150" y="527" type="line"/>
			<point x="163" y="527" type="line" smooth="yes"/>
			<point x="183" y="527"/>
			<point x="193" y="515"/>
			<point x="202" y="486" type="curve" smooth="yes"/>
			<point x="314" y="131" type="line" smooth="yes"/>
			<point x="348" y="22"/>
			<point x="382" y="-10"/>
			<point x="477" y="-10" type="curve" smooth="yes"/>
			<point x="589" y="-10"/>
			<point x="632" y="43"/>
			<point x="632" y="204" type="curve" smooth="yes"/>
			<point x="632" y="497" type="line" smooth="yes"/>
			<point x="632" y="634"/>
			<point x="588" y="692"/>
			<point x="490" y="692" type="curve" smooth="yes"/>
			<point x="393" y="692"/>
			<point x="347" y="635"/>
			<point x="347" y="523" type="curve" smooth="yes"/>
			<point x="347" y="430"/>
			<point x="377" y="376"/>
			<point x="430" y="376" type="curve" smooth="yes"/>
			<point x="471" y="376"/>
			<point x="491" y="409"/>
			<point x="491" y="474" type="curve"/>
			<point x="430" y="474"/>
			<point x="411" y="483"/>
			<point x="411" y="512" type="curve" smooth="yes"/>
			<point x="411" y="542"/>
			<point x="432" y="554"/>
			<point x="487" y="554" type="curve" smooth="yes"/>
			<point x="547" y="554"/>
			<point x="563" y="540"/>
			<point x="563" y="486" type="curve" smooth="yes"/>
			<point x="563" y="217" type="line" smooth="yes"/>
			<point x="563" y="150"/>
			<point x="540" y="129"/>
			<point x="469" y="129" type="curve" smooth="yes"/>
			<point x="406" y="129"/>
			<point x="384" y="144"/>
			<point x="364" y="206" type="curve" smooth="yes"/>
			<point x="249" y="568" type="line" smooth="yes"/>
			<point x="219" y="664"/>
			<point x="203" y="680"/>
			<point x="145" y="680" type="curve" smooth="yes"/>
			<point x="81" y="680" type="line"/>
		</contour>
	</outline>
	<anchor name="top" x="359" y="680"/>
</glyph>
<glyph name="ta-hmnp" format="2">
	<unicode hex="1E103"/>
	<advance width="663"/>
	<outline>
		<contour>
			<point x="353" y="-10" type="curve" smooth="yes"/>
			<point x="530" y="-10"/>
			<point x="589" y="46"/>
			<point x="589" y="214" type="curve" smooth="yes"/>
			<point x="589" y="497" type="line" smooth="yes"/>
			<point x="589" y="634"/>
			<point x="547" y="692"/>
			<point x="449" y="692" type="curve" smooth="yes"/>
			<point x="353" y="692"/>
			<point x="304" y="636"/>
			<point x="304" y="515" type="curve" smooth="yes"/>
			<point x="304" y="423"/>
			<point x="334" y="369"/>
			<point x="386" y="369" type="curve" smooth="yes"/>
			<point x="428" y="369"/>
			<point x="448" y="402"/>
			<point x="448" y="474" type="curve"/>
			<point x="386" y="474"/>
			<point x="368" y="483"/>
			<point x="368" y="512" type="curve" smooth="yes"/>
			<point x="368" y="543"/>
			<point x="389" y="554"/>
			<point x="444" y="554" type="curve" smooth="yes"/>
			<point x="505" y="554"/>
			<point x="520" y="539"/>
			<point x="520" y="486" type="curve" smooth="yes"/>
			<point x="520" y="231" type="line" smooth="yes"/>
			<point x="520" y="150"/>
			<point x="487" y="129"/>
			<point x="352" y="129" type="curve" smooth="yes"/>
			<point x="220" y="129"/>
			<point x="188" y="149"/>
			<point x="188" y="231" type="curve" smooth="yes"/>
			<point x="188" y="558" type="line" smooth="yes"/>
			<point x="188" y="655"/>
			<point x="169" y="692"/>
			<point x="118" y="692" type="curve" smooth="yes"/>
			<point x="66" y="692"/>
			<point x="38" y="649"/>
			<point x="38" y="556" type="curve"/>
			<point x="100" y="556"/>
			<point x="118" y="542"/>
			<point x="118" y="485" type="curve" smooth="yes"/>
			<point x="118" y="214" type="line" smooth="yes"/>
			<point x="118" y="46"/>
			<point x="178" y="-10"/>
		</contour>
	</outline>
	<anchor name="top" x="343" y="680"/>
</glyph>
<glyph name="ha-hmnp" format="2">
	<unicode hex="1E104"/>
	<advance width="696"/>
	<outline>
		<contour>
			<point x="228" y="-10" type="curve" smooth="yes"/>
			<point x="334" y="-10"/>
			<point x="387" y="43"/>
			<point x="387" y="184" type="curve" smooth="yes"/>
			<point x="387" y="472" type="line" smooth="yes"/>
			<point x="387" y="536"/>
			<point x="405" y="554"/>
			<point x="467" y="554" type="curve" smooth="yes"/>
			<point x="532" y="554"/>
			<point x="548" y="537"/>
			<point x="548" y="471" type="curve" smooth="yes"/>
			<point x="548" y="0" type="line"/>
			<point x="618" y="0" type="line"/>
			<point x="618" y="502" type="line" smooth="yes"/>
			<point x="618" y="635"/>
			<point x="571" y="692"/>
			<point x="474" y="692" type="curve" smooth="yes"/>
			<point x="412" y="692"/>
			<point x="373" y="662"/>
			<point x="356" y="605" type="curve"/>
			<point x="352" y="605" type="line"/>
			<point x="333" y="663"/>
			<point x="286" y="692"/>
			<point x="218" y="692" type="curve" smooth="yes"/>
			<point x="118" y="692"/>
			<point x="63" y="636"/>
			<point x="63" y="524" type="curve" smooth="yes"/>
			<point x="63" y="427"/>
			<point x="105" y="381"/>
			<point x="155" y="381" type="curve" smooth="yes"/>
			<point x="197" y="381"/>
			<point x="219" y="413"/>
			<point x="219" y="475" type="curve"/>
			<point x="146" y="475"/>
			<point x="127" y="484"/>
			<point x="127" y="513" type="curve" smooth="yes"/>
			<point x="127" y="542"/>
			<point x="152" y="554"/>
			<point x="223" y="554" type="curve" smooth="yes"/>
			<point x="304" y="554"/>
			<point x="318" y="539"/>
			<point x="318" y="473" type="curve" smooth="yes"/>
			<point x="318" y="209" type="line" smooth="yes"/>
			<point x="318" y="143"/>
			<point x="303" y="129"/>
			<point x="222" y="129" type="curve" smooth="yes"/>
			<point x="150" y="129"/>
			<point x="127" y="139"/>
			<point x="127" y="169" type="curve" smooth="yes"/>
			<point x="127" y="198"/>
			<point x="146" y="208"/>
			<point x="219" y="208" type="curve"/>
			<point x="219" y="270"/>
			<point x="200" y="302"/>
			<point x="158" y="302" type="curve" smooth="yes"/>
			<point x="107" y="302"/>
			<point x="63" y="257"/>
			<point x="63" y="155" type="curve" smooth="yes"/>
			<point x="63" y="47"/>
			<point x="114" y="-10"/>
		</contour>
	</outline>
	<anchor name="top" x="342" y="680"/>
</glyph>
<glyph name="na-hmnp" format="2">
	<unicode hex="1E105"/>
	<advance width="723"/>
	<outline>
		<contour>
			<point x="225" y="-10" type="curve" smooth="yes"/>
			<point x="310" y="-10"/>
			<point x="347" y="24"/>
			<point x="378" y="164" type="curve" smooth="yes"/>
			<point x="451" y="497" type="line" smooth="yes"/>
			<point x="461" y="541"/>
			<point x="476" y="554"/>
			<point x="517" y="554" type="curve" smooth="yes"/>
			<point x="560" y="554"/>
			<point x="574" y="538"/>
			<point x="574" y="492" type="curve" smooth="yes"/>
			<point x="574" y="0" type="line"/>
			<point x="644" y="0" type="line"/>
			<point x="644" y="523" type="line" smooth="yes"/>
			<point x="644" y="646"/>
			<point x="612" y="692"/>
			<point x="525" y="692" type="curve" smooth="yes"/>
			<point x="448" y="692"/>
			<point x="415" y="661"/>
			<point x="394" y="562" type="curve" smooth="yes"/>
			<point x="318" y="211" type="line" smooth="yes"/>
			<point x="303" y="142"/>
			<point x="282" y="129"/>
			<point x="228" y="129" type="curve" smooth="yes"/>
			<point x="173" y="129"/>
			<point x="147" y="148"/>
			<point x="147" y="193" type="curve" smooth="yes"/>
			<point x="147" y="241"/>
			<point x="179" y="272"/>
			<point x="252" y="279" type="curve"/>
			<point x="252" y="410" type="line"/>
			<point x="173" y="436"/>
			<point x="132" y="465"/>
			<point x="132" y="509" type="curve" smooth="yes"/>
			<point x="132" y="549"/>
			<point x="167" y="557"/>
			<point x="264" y="557" type="curve"/>
			<point x="264" y="649"/>
			<point x="236" y="692"/>
			<point x="180" y="692" type="curve" smooth="yes"/>
			<point x="114" y="692"/>
			<point x="67" y="638"/>
			<point x="67" y="519" type="curve" smooth="yes"/>
			<point x="67" y="425"/>
			<point x="104" y="353"/>
			<point x="156" y="319" type="curve"/>
			<point x="156" y="314" type="line"/>
			<point x="107" y="291"/>
			<point x="76" y="241"/>
			<point x="76" y="155" type="curve" smooth="yes"/>
			<point x="76" y="55"/>
			<point x="119" y="-10"/>
		</contour>
	</outline>
	<anchor name="top" x="366" y="680"/>
</glyph>
<glyph name="xa-hmnp" format="2">
	<unicode hex="1E106"/>
	<advance width="697"/>
	<outline>
		<contour>
			<point x="81" y="0" type="line"/>
			<point x="150" y="0" type="line"/>
			<point x="150" y="158" type="line" smooth="yes"/>
			<point x="150" y="207"/>
			<point x="167" y="229"/>
			<point x="236" y="229" type="curve" smooth="yes"/>
			<point x="304" y="229"/>
			<point x="321" y="207"/>
			<point x="321" y="149" type="curve" smooth="yes"/>
			<point x="321" y="130" type="line" smooth="yes"/>
			<point x="321" y="39"/>
			<point x="360" y="-10"/>
			<point x="471" y="-10" type="curve" smooth="yes"/>
			<point x="584" y="-10"/>
			<point x="622" y="42"/>
			<point x="622" y="176" type="curve" smooth="yes"/>
			<point x="622" y="497" type="line" smooth="yes"/>
			<point x="622" y="634"/>
			<point x="579" y="692"/>
			<point x="476" y="692" type="curve" smooth="yes"/>
			<point x="384" y="692"/>
			<point x="336" y="636"/>
			<point x="336" y="521" type="curve" smooth="yes"/>
			<point x="336" y="436"/>
			<point x="370" y="383"/>
			<point x="422" y="383" type="curve" smooth="yes"/>
			<point x="461" y="383"/>
			<point x="483" y="413"/>
			<point x="483" y="477" type="curve"/>
			<point x="419" y="477"/>
			<point x="400" y="486"/>
			<point x="400" y="513" type="curve" smooth="yes"/>
			<point x="400" y="543"/>
			<point x="422" y="554"/>
			<point x="477" y="554" type="curve" smooth="yes"/>
			<point x="538" y="554"/>
			<point x="552" y="541"/>
			<point x="552" y="489" type="curve" smooth="yes"/>
			<point x="552" y="207" type="line" smooth="yes"/>
			<point x="552" y="149"/>
			<point x="536" y="129"/>
			<point x="467" y="129" type="curve" smooth="yes"/>
			<point x="396" y="129"/>
			<point x="381" y="149"/>
			<point x="381" y="212" type="curve" smooth="yes"/>
			<point x="381" y="233" type="line" smooth="yes"/>
			<point x="381" y="322"/>
			<point x="341" y="368"/>
			<point x="261" y="368" type="curve" smooth="yes"/>
			<point x="194" y="368"/>
			<point x="165" y="332"/>
			<point x="153" y="289" type="curve"/>
			<point x="148" y="289" type="line"/>
			<point x="150" y="330"/>
			<point x="150" y="364"/>
			<point x="150" y="408" type="curve" smooth="yes"/>
			<point x="150" y="680" type="line"/>
			<point x="81" y="680" type="line"/>
		</contour>
	</outline>
	<anchor name="top" x="329" y="680"/>
</glyph>
<glyph name="nka-hmnp" format="2">
	<unicode hex="1E107"/>
	<advance width="723"/>
	<outline>
		<contour>
			<point x="178" y="-10" type="curve" smooth="yes"/>
			<point x="263" y="-10"/>
			<point x="301" y="43"/>
			<point x="301" y="161" type="curve" smooth="yes"/>
			<point x="301" y="700" type="line" smooth="yes"/>
			<point x="301" y="798"/>
			<point x="282" y="834"/>
			<point x="231" y="834" type="curve" smooth="yes"/>
			<point x="178" y="834"/>
			<point x="153" y="792"/>
			<point x="153" y="706" type="curve"/>
			<point x="218" y="706"/>
			<point x="236" y="690"/>
			<point x="236" y="635" type="curve" smooth="yes"/>
			<point x="236" y="174" type="line" smooth="yes"/>
			<point x="236" y="130"/>
			<point x="219" y="113"/>
			<point x="174" y="113" type="curve" smooth="yes"/>
			<point x="132" y="113"/>
			<point x="116" y="130"/>
			<point x="116" y="172" type="curve" smooth="yes"/>
			<point x="116" y="221"/>
			<point x="137" y="241"/>
			<point x="213" y="256" type="curve" smooth="yes"/>
			<point x="494" y="312" type="line" smooth="yes"/>
			<point x="609" y="335"/>
			<point x="646" y="387"/>
			<point x="646" y="523" type="curve" smooth="yes"/>
			<point x="646" y="645"/>
			<point x="611" y="692"/>
			<point x="522" y="692" type="curve" smooth="yes"/>
			<point x="438" y="692"/>
			<point x="400" y="638"/>
			<point x="400" y="519" type="curve" smooth="yes"/>
			<point x="400" y="161" type="line" smooth="yes"/>
			<point x="400" y="36"/>
			<point x="437" y="-10"/>
			<point x="537" y="-10" type="curve" smooth="yes"/>
			<point x="617" y="-10"/>
			<point x="660" y="37"/>
			<point x="660" y="126" type="curve" smooth="yes"/>
			<point x="660" y="187"/>
			<point x="640" y="226"/>
			<point x="607" y="226" type="curve" smooth="yes"/>
			<point x="602" y="226"/>
			<point x="596" y="225"/>
			<point x="589" y="222" type="curve"/>
			<point x="593" y="210"/>
			<point x="596" y="192"/>
			<point x="596" y="174" type="curve" smooth="yes"/>
			<point x="596" y="131"/>
			<point x="580" y="117"/>
			<point x="533" y="117" type="curve" smooth="yes"/>
			<point x="483" y="117"/>
			<point x="466" y="133"/>
			<point x="466" y="180" type="curve" smooth="yes"/>
			<point x="466" y="506" type="line" smooth="yes"/>
			<point x="466" y="552"/>
			<point x="482" y="569"/>
			<point x="525" y="569" type="curve" smooth="yes"/>
			<point x="567" y="569"/>
			<point x="583" y="552"/>
			<point x="583" y="508" type="curve" smooth="yes"/>
			<point x="583" y="459"/>
			<point x="563" y="441"/>
			<point x="488" y="426" type="curve" smooth="yes"/>
			<point x="207" y="370" type="line" smooth="yes"/>
			<point x="90" y="347"/>
			<point x="53" y="294"/>
			<point x="53" y="158" type="curve" smooth="yes"/>
			<point x="53" y="39"/>
			<point x="90" y="-10"/>
		</contour>
	</outline>
	<anchor name="top" x="517" y="680"/>
</glyph>
<glyph name="ca-hmnp" format="2">
	<unicode hex="1E108"/>
	<advance width="676"/>
	<outline>
		<contour>
			<point x="234" y="-10" type="curve" smooth="yes"/>
			<point x="358" y="-10"/>
			<point x="410" y="48"/>
			<point x="410" y="240" type="curve" smooth="yes"/>
			<point x="410" y="418"/>
			<point x="352" y="488"/>
			<point x="243" y="488" type="curve" smooth="yes"/>
			<point x="154" y="488" type="line"/>
			<point x="154" y="680" type="line"/>
			<point x="85" y="680" type="line"/>
			<point x="85" y="358" type="line"/>
			<point x="244" y="358" type="line" smooth="yes"/>
			<point x="316" y="358"/>
			<point x="343" y="338"/>
			<point x="343" y="240" type="curve" smooth="yes"/>
			<point x="343" y="139"/>
			<point x="323" y="122"/>
			<point x="233" y="122" type="curve" smooth="yes"/>
			<point x="148" y="122"/>
			<point x="131" y="132"/>
			<point x="131" y="160" type="curve" smooth="yes"/>
			<point x="131" y="190"/>
			<point x="152" y="199"/>
			<point x="220" y="199" type="curve"/>
			<point x="220" y="258"/>
			<point x="206" y="293"/>
			<point x="158" y="293" type="curve" smooth="yes"/>
			<point x="102" y="293"/>
			<point x="67" y="242"/>
			<point x="67" y="152" type="curve" smooth="yes"/>
			<point x="67" y="47"/>
			<point x="118" y="-10"/>
		</contour>
		<contour>
			<point x="528" y="0" type="line"/>
			<point x="598" y="0" type="line"/>
			<point x="598" y="498" type="line" smooth="yes"/>
			<point x="598" y="637"/>
			<point x="555" y="692"/>
			<point x="443" y="692" type="curve" smooth="yes"/>
			<point x="332" y="692"/>
			<point x="289" y="637"/>
			<point x="289" y="498" type="curve" smooth="yes"/>
			<point x="289" y="414" type="line"/>
			<point x="358" y="414" type="line"/>
			<point x="358" y="474" type="line" smooth="yes"/>
			<point x="358" y="535"/>
			<point x="377" y="554"/>
			<point x="443" y="554" type="curve" smooth="yes"/>
			<point x="509" y="554"/>
			<point x="528" y="535"/>
			<point x="528" y="474" type="curve" smooth="yes"/>
		</contour>
	</outline>
	<anchor name="top" x="341" y="680"/>
</glyph>
<glyph name="la-hmnp" format="2">
	<unicode hex="1E109"/>
	<advance width="590"/>
	<outline>
		<contour>
			<point x="299" y="-10" type="curve" smooth="yes"/>
			<point x="481" y="-10"/>
			<point x="527" y="48"/>
			<point x="527" y="159" type="curve" smooth="yes"/>
			<point x="527" y="237"/>
			<point x="500" y="279"/>
			<point x="449" y="279" type="curve" smooth="yes"/>
			<point x="406" y="279"/>
			<point x="386" y="251"/>
			<point x="386" y="194" type="curve"/>
			<point x="449" y="194"/>
			<point x="468" y="187"/>
			<point x="468" y="163" type="curve" smooth="yes"/>
			<point x="468" y="132"/>
			<point x="445" y="124"/>
			<point x="297" y="124" type="curve" smooth="yes"/>
			<point x="142" y="124"/>
			<point x="120" y="133"/>
			<point x="120" y="174" type="curve" smooth="yes"/>
			<point x="120" y="215"/>
			<point x="144" y="237"/>
			<point x="282" y="293" type="curve" smooth="yes"/>
			<point x="393" y="338"/>
			<point x="448" y="369"/>
			<point x="479" y="403" type="curve" smooth="yes"/>
			<point x="507" y="434"/>
			<point x="520" y="478"/>
			<point x="520" y="535" type="curve" smooth="yes"/>
			<point x="520" y="680" type="line"/>
			<point x="102" y="680" type="line"/>
			<point x="74" y="602" type="line"/>
			<point x="74" y="548" type="line"/>
			<point x="450" y="548" type="line"/>
			<point x="450" y="538" type="line" smooth="yes"/>
			<point x="450" y="502"/>
			<point x="436" y="488"/>
			<point x="304" y="434" type="curve" smooth="yes"/>
			<point x="171" y="380"/>
			<point x="132" y="357"/>
			<point x="102" y="323" type="curve" smooth="yes"/>
			<point x="71" y="288"/>
			<point x="56" y="239"/>
			<point x="56" y="174" type="curve" smooth="yes"/>
			<point x="56" y="44"/>
			<point x="113" y="-10"/>
		</contour>
	</outline>
	<anchor name="top" x="294" y="680"/>
</glyph>
<glyph name="sa-hmnp" format="2">
	<unicode hex="1E10A"/>
	<advance width="714"/>
	<outline>
		<contour>
			<point x="377" y="-10" type="curve" smooth="yes"/>
			<point x="580" y="-10"/>
			<point x="636" y="45"/>
			<point x="636" y="214" type="curve" smooth="yes"/>
			<point x="636" y="680" type="line"/>
			<point x="566" y="680" type="line"/>
			<point x="566" y="239" type="line" smooth="yes"/>
			<point x="566" y="144"/>
			<point x="534" y="129"/>
			<point x="377" y="129" type="curve" smooth="yes"/>
			<point x="221" y="129"/>
			<point x="188" y="144"/>
			<point x="188" y="239" type="curve" smooth="yes"/>
			<point x="188" y="558" type="line" smooth="yes"/>
			<point x="188" y="655"/>
			<point x="169" y="692"/>
			<point x="118" y="692" type="curve" smooth="yes"/>
			<point x="66" y="692"/>
			<point x="38" y="649"/>
			<point x="38" y="556" type="curve"/>
			<point x="100" y="556"/>
			<point x="118" y="542"/>
			<point x="118" y="485" type="curve" smooth="yes"/>
			<point x="118" y="214" type="line" smooth="yes"/>
			<point x="118" y="45"/>
			<point x="176" y="-10"/>
		</contour>
		<contour>
			<point x="342" y="47" type="line"/>
			<point x="412" y="47" type="line"/>
			<point x="412" y="680" type="line"/>
			<point x="342" y="680" type="line"/>
		</contour>
	</outline>
	<anchor name="top" x="377" y="680"/>
</glyph>
<glyph name="za-hmnp" format="2">
	<unicode hex="1E10B"/>
	<advance width="638"/>
	<outline>
		<contour>
			<point x="313" y="-10" type="curve" smooth="yes"/>
			<point x="502" y="-10"/>
			<point x="559" y="51"/>
			<point x="559" y="224" type="curve" smooth="yes"/>
			<point x="559" y="680" type="line"/>
			<point x="490" y="680" type="line"/>
			<point x="490" y="590" type="line" smooth="yes"/>
			<point x="490" y="552"/>
			<point x="475" y="533"/>
			<point x="445" y="533" type="curve" smooth="yes"/>
			<point x="408" y="533"/>
			<point x="376" y="563"/>
			<point x="334" y="609" type="curve" smooth="yes"/>
			<point x="292" y="655"/>
			<point x="254" y="692"/>
			<point x="196" y="692" type="curve" smooth="yes"/>
			<point x="118" y="692"/>
			<point x="70" y="629"/>
			<point x="70" y="528" type="curve" smooth="yes"/>
			<point x="70" y="452"/>
			<point x="91" y="408"/>
			<point x="129" y="408" type="curve" smooth="yes"/>
			<point x="135" y="408"/>
			<point x="140" y="409"/>
			<point x="145" y="412" type="curve"/>
			<point x="141" y="427"/>
			<point x="139" y="450"/>
			<point x="139" y="472" type="curve" smooth="yes"/>
			<point x="139" y="523"/>
			<point x="156" y="554"/>
			<point x="189" y="554" type="curve" smooth="yes"/>
			<point x="221" y="554"/>
			<point x="247" y="526"/>
			<point x="280" y="490" type="curve" smooth="yes"/>
			<point x="323" y="443"/>
			<point x="360" y="406"/>
			<point x="412" y="406" type="curve" smooth="yes"/>
			<point x="448" y="406"/>
			<point x="479" y="421"/>
			<point x="489" y="464" type="curve"/>
			<point x="494" y="464" type="line"/>
			<point x="491" y="417"/>
			<point x="490" y="384"/>
			<point x="490" y="351" type="curve" smooth="yes"/>
			<point x="490" y="238" type="line" smooth="yes"/>
			<point x="490" y="151"/>
			<point x="459" y="129"/>
			<point x="316" y="129" type="curve" smooth="yes"/>
			<point x="152" y="129"/>
			<point x="127" y="139"/>
			<point x="127" y="174" type="curve" smooth="yes"/>
			<point x="127" y="189"/>
			<point x="135" y="201"/>
			<point x="155" y="206" type="curve" smooth="yes"/>
			<point x="177" y="212"/>
			<point x="215" y="214"/>
			<point x="285" y="214" type="curve"/>
			<point x="285" y="277"/>
			<point x="258" y="309"/>
			<point x="198" y="309" type="curve" smooth="yes"/>
			<point x="113" y="309"/>
			<point x="63" y="254"/>
			<point x="63" y="170" type="curve" smooth="yes"/>
			<point x="63" y="43"/>
			<point x="125" y="-10"/>
		</contour>
	</outline>
	<anchor name="top" x="312" y="680"/>
</glyph>
<glyph name="nca-hmnp" format="2">
	<unicode hex="1E10C"/>
	<advance width="682"/>
	<outline>
		<contour>
			<point x="81" y="0" type="line"/>
			<point x="150" y="0" type="line"/>
			<point x="150" y="524" type="line"/>
			<point x="155" y="524" type="line"/>
			<point x="249" y="388" type="line"/>
			<point x="324" y="388" type="line"/>
			<point x="371" y="477" type="line" smooth="yes"/>
			<point x="403" y="538"/>
			<point x="422" y="554"/>
			<point x="464" y="554" type="curve" smooth="yes"/>
			<point x="521" y="554"/>
			<point x="537" y="539"/>
			<point x="537" y="479" type="curve" smooth="yes"/>
			<point x="537" y="202" type="line" smooth="yes"/>
			<point x="537" y="142"/>
			<point x="522" y="129"/>
			<point x="454" y="129" type="curve" smooth="yes"/>
			<point x="383" y="129"/>
			<point x="363" y="139"/>
			<point x="363" y="169" type="curve" smooth="yes"/>
			<point x="363" y="199"/>
			<point x="386" y="208"/>
			<point x="450" y="208" type="curve"/>
			<point x="450" y="270"/>
			<point x="433" y="302"/>
			<point x="391" y="302" type="curve" smooth="yes"/>
			<point x="343" y="302"/>
			<point x="299" y="255"/>
			<point x="299" y="160" type="curve" smooth="yes"/>
			<point x="299" y="53"/>
			<point x="344" y="-10"/>
			<point x="454" y="-10" type="curve" smooth="yes"/>
			<point x="559" y="-10"/>
			<point x="606" y="45"/>
			<point x="606" y="188" type="curve" smooth="yes"/>
			<point x="606" y="507" type="line" smooth="yes"/>
			<point x="606" y="647"/>
			<point x="572" y="692"/>
			<point x="490" y="692" type="curve" smooth="yes"/>
			<point x="429" y="692"/>
			<point x="397" y="663"/>
			<point x="352" y="575" type="curve" smooth="yes"/>
			<point x="315" y="502" type="line"/>
			<point x="310" y="502" type="line"/>
			<point x="192" y="680" type="line"/>
			<point x="81" y="680" type="line"/>
		</contour>
	</outline>
	<anchor name="top" x="337" y="680"/>
</glyph>
<glyph name="ntsa-hmnp" format="2">
	<unicode hex="1E10D"/>
	<advance width="603"/>
	<outline>
		<contour>
			<point x="79" y="0" type="line"/>
			<point x="148" y="0" type="line"/>
			<point x="148" y="31" type="line" smooth="yes"/>
			<point x="148" y="83"/>
			<point x="178" y="111"/>
			<point x="311" y="111" type="curve" smooth="yes"/>
			<point x="445" y="111"/>
			<point x="474" y="85"/>
			<point x="474" y="31" type="curve" smooth="yes"/>
			<point x="474" y="0" type="line"/>
			<point x="543" y="0" type="line"/>
			<point x="543" y="52" type="line" smooth="yes"/>
			<point x="543" y="203"/>
			<point x="471" y="250"/>
			<point x="330" y="250" type="curve" smooth="yes"/>
			<point x="217" y="250"/>
			<point x="171" y="220"/>
			<point x="151" y="153" type="curve"/>
			<point x="146" y="153" type="line"/>
			<point x="148" y="206"/>
			<point x="148" y="229"/>
			<point x="148" y="267" type="curve" smooth="yes"/>
			<point x="148" y="455" type="line" smooth="yes"/>
			<point x="148" y="532"/>
			<point x="186" y="554"/>
			<point x="310" y="554" type="curve" smooth="yes"/>
			<point x="444" y="554"/>
			<point x="471" y="526"/>
			<point x="471" y="455" type="curve" smooth="yes"/>
			<point x="471" y="438"/>
			<point x="469" y="424"/>
			<point x="465" y="407" type="curve"/>
			<point x="471" y="404"/>
			<point x="475" y="403"/>
			<point x="482" y="403" type="curve" smooth="yes"/>
			<point x="514" y="403"/>
			<point x="539" y="444"/>
			<point x="539" y="512" type="curve" smooth="yes"/>
			<point x="539" y="634"/>
			<point x="480" y="692"/>
			<point x="313" y="692" type="curve" smooth="yes"/>
			<point x="144" y="692"/>
			<point x="79" y="648"/>
			<point x="79" y="469" type="curve" smooth="yes"/>
		</contour>
	</outline>
	<anchor name="top" x="310" y="680"/>
</glyph>
<glyph name="ka-hmnp" format="2">
	<unicode hex="1E10E"/>
	<advance width="601"/>
	<outline>
		<contour>
			<point x="301" y="-10" type="curve" smooth="yes"/>
			<point x="474" y="-10"/>
			<point x="527" y="44"/>
			<point x="527" y="214" type="curve" smooth="yes"/>
			<point x="527" y="468" type="line" smooth="yes"/>
			<point x="527" y="631"/>
			<point x="472" y="692"/>
			<point x="325" y="692" type="curve" smooth="yes"/>
			<point x="225" y="692"/>
			<point x="174" y="664"/>
			<point x="154" y="592" type="curve"/>
			<point x="149" y="592" type="line"/>
			<point x="151" y="625"/>
			<point x="152" y="648"/>
			<point x="152" y="666" type="curve" smooth="yes"/>
			<point x="152" y="680" type="line"/>
			<point x="83" y="680" type="line"/>
			<point x="83" y="410" type="line"/>
			<point x="152" y="410" type="line"/>
			<point x="152" y="457" type="line" smooth="yes"/>
			<point x="152" y="531"/>
			<point x="190" y="554"/>
			<point x="306" y="554" type="curve" smooth="yes"/>
			<point x="425" y="554"/>
			<point x="458" y="530"/>
			<point x="458" y="458" type="curve" smooth="yes"/>
			<point x="458" y="230" type="line" smooth="yes"/>
			<point x="458" y="152"/>
			<point x="425" y="129"/>
			<point x="300" y="129" type="curve" smooth="yes"/>
			<point x="174" y="129"/>
			<point x="139" y="149"/>
			<point x="139" y="223" type="curve" smooth="yes"/>
			<point x="139" y="241"/>
			<point x="141" y="256"/>
			<point x="146" y="274" type="curve"/>
			<point x="140" y="277"/>
			<point x="135" y="278"/>
			<point x="129" y="278" type="curve" smooth="yes"/>
			<point x="93" y="278"/>
			<point x="70" y="234"/>
			<point x="70" y="170" type="curve" smooth="yes"/>
			<point x="70" y="39"/>
			<point x="135" y="-10"/>
		</contour>
	</outline>
	<anchor name="top" x="305" y="680"/>
</glyph>
<glyph name="da-hmnp" format="2">
	<unicode hex="1E10F"/>
	<advance width="629"/>
	<outline>
		<contour>
			<point x="286" y="-10" type="curve" smooth="yes"/>
			<point x="396" y="-10"/>
			<point x="439" y="19"/>
			<point x="454" y="98" type="curve"/>
			<point x="459" y="98" type="line"/>
			<point x="470" y="18"/>
			<point x="495" y="-10"/>
			<point x="532" y="-10" type="curve" smooth="yes"/>
			<point x="566" y="-10"/>
			<point x="591" y="21"/>
			<point x="595" y="109" type="curve"/>
			<point x="526" y="120"/>
			<point x="513" y="145"/>
			<point x="513" y="224" type="curve" smooth="yes"/>
			<point x="513" y="272" type="line"/>
			<point x="444" y="272" type="line"/>
			<point x="444" y="227" type="line" smooth="yes"/>
			<point x="444" y="145"/>
			<point x="413" y="129"/>
			<point x="294" y="129" type="curve" smooth="yes"/>
			<point x="182" y="129"/>
			<point x="143" y="153"/>
			<point x="143" y="230" type="curve" smooth="yes"/>
			<point x="143" y="459" type="line" smooth="yes"/>
			<point x="143" y="532"/>
			<point x="180" y="554"/>
			<point x="300" y="554" type="curve" smooth="yes"/>
			<point x="430" y="554"/>
			<point x="460" y="529"/>
			<point x="460" y="455" type="curve" smooth="yes"/>
			<point x="460" y="438"/>
			<point x="459" y="424"/>
			<point x="454" y="407" type="curve"/>
			<point x="460" y="404"/>
			<point x="465" y="403"/>
			<point x="471" y="403" type="curve" smooth="yes"/>
			<point x="504" y="403"/>
			<point x="529" y="444"/>
			<point x="529" y="512" type="curve" smooth="yes"/>
			<point x="529" y="637"/>
			<point x="466" y="692"/>
			<point x="301" y="692" type="curve" smooth="yes"/>
			<point x="130" y="692"/>
			<point x="74" y="647"/>
			<point x="74" y="470" type="curve" smooth="yes"/>
			<point x="74" y="215" type="line" smooth="yes"/>
			<point x="74" y="50"/>
			<point x="130" y="-10"/>
		</contour>
	</outline>
	<anchor name="top" x="297" y="680"/>
</glyph>
<glyph name="nya-hmnp" format="2">
	<unicode hex="1E110"/>
	<advance width="622"/>
	<outline>
		<contour>
			<point x="79" y="0" type="line"/>
			<point x="148" y="0" type="line"/>
			<point x="148" y="62" type="line" smooth="yes"/>
			<point x="148" y="96"/>
			<point x="159" y="112"/>
			<point x="195" y="112" type="curve" smooth="yes"/>
			<point x="229" y="112"/>
			<point x="252" y="94"/>
			<point x="298" y="54" type="curve" smooth="yes"/>
			<point x="347" y="12"/>
			<point x="380" y="-10"/>
			<point x="436" y="-10" type="curve" smooth="yes"/>
			<point x="520" y="-10"/>
			<point x="559" y="46"/>
			<point x="559" y="156" type="curve" smooth="yes"/>
			<point x="559" y="253"/>
			<point x="527" y="299"/>
			<point x="470" y="299" type="curve" smooth="yes"/>
			<point x="427" y="299"/>
			<point x="407" y="270"/>
			<point x="407" y="208" type="curve"/>
			<point x="474" y="208"/>
			<point x="496" y="198"/>
			<point x="496" y="164" type="curve" smooth="yes"/>
			<point x="496" y="138"/>
			<point x="481" y="125"/>
			<point x="447" y="125" type="curve" smooth="yes"/>
			<point x="406" y="125"/>
			<point x="385" y="141"/>
			<point x="333" y="186" type="curve" smooth="yes"/>
			<point x="291" y="223"/>
			<point x="264" y="245"/>
			<point x="225" y="245" type="curve" smooth="yes"/>
			<point x="188" y="245"/>
			<point x="163" y="228"/>
			<point x="152" y="192" type="curve"/>
			<point x="147" y="192" type="line"/>
			<point x="148" y="220"/>
			<point x="148" y="240"/>
			<point x="148" y="299" type="curve" smooth="yes"/>
			<point x="148" y="455" type="line" smooth="yes"/>
			<point x="148" y="532"/>
			<point x="186" y="554"/>
			<point x="317" y="554" type="curve" smooth="yes"/>
			<point x="452" y="554"/>
			<point x="480" y="526"/>
			<point x="480" y="454" type="curve" smooth="yes"/>
			<point x="480" y="438"/>
			<point x="478" y="424"/>
			<point x="473" y="407" type="curve"/>
			<point x="480" y="404"/>
			<point x="484" y="403"/>
			<point x="490" y="403" type="curve" smooth="yes"/>
			<point x="523" y="403"/>
			<point x="548" y="442"/>
			<point x="548" y="515" type="curve" smooth="yes"/>
			<point x="548" y="635"/>
			<point x="489" y="692"/>
			<point x="314" y="692" type="curve" smooth="yes"/>
			<point x="145" y="692"/>
			<point x="79" y="646"/>
			<point x="79" y="469" type="curve" smooth="yes"/>
		</contour>
	</outline>
	<anchor name="top" x="314" y="680"/>
</glyph>
<glyph name="nra-hmnp" format="2">
	<unicode hex="1E111"/>
	<advance width="602"/>
	<outline>
		<contour>
			<point x="313" y="-10" type="curve" smooth="yes"/>
			<point x="485" y="-10"/>
			<point x="545" y="40"/>
			<point x="545" y="166" type="curve" smooth="yes"/>
			<point x="545" y="251"/>
			<point x="511" y="299"/>
			<point x="454" y="299" type="curve" smooth="yes"/>
			<point x="413" y="299"/>
			<point x="392" y="271"/>
			<point x="392" y="208" type="curve"/>
			<point x="460" y="208"/>
			<point x="481" y="198"/>
			<point x="481" y="173" type="curve" smooth="yes"/>
			<point x="481" y="141"/>
			<point x="446" y="129"/>
			<point x="311" y="129" type="curve" smooth="yes"/>
			<point x="170" y="129"/>
			<point x="134" y="146"/>
			<point x="134" y="194" type="curve" smooth="yes"/>
			<point x="134" y="253"/>
			<point x="192" y="280"/>
			<point x="318" y="289" type="curve"/>
			<point x="318" y="410" type="line"/>
			<point x="197" y="417"/>
			<point x="139" y="438"/>
			<point x="139" y="491" type="curve" smooth="yes"/>
			<point x="139" y="536"/>
			<point x="169" y="554"/>
			<point x="306" y="554" type="curve" smooth="yes"/>
			<point x="436" y="554"/>
			<point x="473" y="546"/>
			<point x="473" y="513" type="curve" smooth="yes"/>
			<point x="473" y="485"/>
			<point x="452" y="475"/>
			<point x="385" y="475" type="curve"/>
			<point x="385" y="414"/>
			<point x="405" y="383"/>
			<point x="447" y="383" type="curve" smooth="yes"/>
			<point x="504" y="383"/>
			<point x="537" y="434"/>
			<point x="537" y="513" type="curve" smooth="yes"/>
			<point x="537" y="641"/>
			<point x="469" y="692"/>
			<point x="306" y="692" type="curve" smooth="yes"/>
			<point x="145" y="692"/>
			<point x="70" y="635"/>
			<point x="70" y="499" type="curve" smooth="yes"/>
			<point x="70" y="405"/>
			<point x="104" y="353"/>
			<point x="177" y="329" type="curve"/>
			<point x="177" y="325" type="line"/>
			<point x="100" y="299"/>
			<point x="64" y="253"/>
			<point x="64" y="164" type="curve" smooth="yes"/>
			<point x="64" y="40"/>
			<point x="132" y="-10"/>
		</contour>
	</outline>
	<anchor name="top" x="311" y="680"/>
</glyph>
<glyph name="va-hmnp" format="2">
	<unicode hex="1E112"/>
	<advance width="668"/>
	<outline>
		<contour>
			<point x="228" y="-10" type="curve" smooth="yes"/>
			<point x="334" y="-10"/>
			<point x="387" y="43"/>
			<point x="387" y="184" type="curve" smooth="yes"/>
			<point x="387" y="496" type="line" smooth="yes"/>
			<point x="387" y="643"/>
			<point x="338" y="692"/>
			<point x="221" y="692" type="curve" smooth="yes"/>
			<point x="119" y="692"/>
			<point x="63" y="636"/>
			<point x="63" y="524" type="curve" smooth="yes"/>
			<point x="63" y="427"/>
			<point x="105" y="381"/>
			<point x="155" y="381" type="curve" smooth="yes"/>
			<point x="197" y="381"/>
			<point x="219" y="413"/>
			<point x="219" y="475" type="curve"/>
			<point x="146" y="475"/>
			<point x="127" y="484"/>
			<point x="127" y="513" type="curve" smooth="yes"/>
			<point x="127" y="542"/>
			<point x="152" y="554"/>
			<point x="223" y="554" type="curve" smooth="yes"/>
			<point x="304" y="554"/>
			<point x="318" y="539"/>
			<point x="318" y="473" type="curve" smooth="yes"/>
			<point x="318" y="209" type="line" smooth="yes"/>
			<point x="318" y="143"/>
			<point x="303" y="129"/>
			<point x="223" y="129" type="curve" smooth="yes"/>
			<point x="150" y="129"/>
			<point x="127" y="139"/>
			<point x="127" y="169" type="curve" smooth="yes"/>
			<point x="127" y="198"/>
			<point x="146" y="208"/>
			<point x="219" y="208" type="curve"/>
			<point x="219" y="270"/>
			<point x="200" y="302"/>
			<point x="158" y="302" type="curve" smooth="yes"/>
			<point x="107" y="302"/>
			<point x="63" y="257"/>
			<point x="63" y="155" type="curve" smooth="yes"/>
			<point x="63" y="47"/>
			<point x="114" y="-10"/>
		</contour>
		<contour>
			<point x="371" y="277" type="line"/>
			<point x="565" y="277" type="line"/>
			<point x="565" y="408" type="line"/>
			<point x="371" y="408" type="line"/>
		</contour>
		<contour>
			<point x="518" y="0" type="line"/>
			<point x="587" y="0" type="line"/>
			<point x="587" y="680" type="line"/>
			<point x="518" y="680" type="line"/>
		</contour>
	</outline>
	<anchor name="top" x="359" y="680"/>
</glyph>
<glyph name="ntxa-hmnp" format="2">
	<unicode hex="1E113"/>
	<advance width="607"/>
	<outline>
		<contour>
			<point x="309" y="-10" type="curve" smooth="yes"/>
			<point x="485" y="-10"/>
			<point x="548" y="45"/>
			<point x="548" y="160" type="curve" smooth="yes"/>
			<point x="548" y="237"/>
			<point x="518" y="279"/>
			<point x="465" y="279" type="curve" smooth="yes"/>
			<point x="424" y="279"/>
			<point x="404" y="250"/>
			<point x="404" y="194" type="curve"/>
			<point x="469" y="194"/>
			<point x="488" y="186"/>
			<point x="488" y="163" type="curve" smooth="yes"/>
			<point x="488" y="131"/>
			<point x="461" y="124"/>
			<point x="309" y="124" type="curve" smooth="yes"/>
			<point x="152" y="124"/>
			<point x="124" y="131"/>
			<point x="124" y="165" type="curve" smooth="yes"/>
			<point x="124" y="201"/>
			<point x="146" y="215"/>
			<point x="289" y="271" type="curve" smooth="yes"/>
			<point x="411" y="319"/>
			<point x="468" y="347"/>
			<point x="501" y="384" type="curve" smooth="yes"/>
			<point x="533" y="419"/>
			<point x="544" y="463"/>
			<point x="544" y="515" type="curve" smooth="yes"/>
			<point x="544" y="631"/>
			<point x="478" y="692"/>
			<point x="304" y="692" type="curve" smooth="yes"/>
			<point x="138" y="692"/>
			<point x="70" y="633"/>
			<point x="70" y="524" type="curve" smooth="yes"/>
			<point x="70" y="446"/>
			<point x="100" y="404"/>
			<point x="153" y="404" type="curve" smooth="yes"/>
			<point x="194" y="404"/>
			<point x="214" y="432"/>
			<point x="214" y="489" type="curve"/>
			<point x="149" y="489"/>
			<point x="130" y="496"/>
			<point x="130" y="520" type="curve" smooth="yes"/>
			<point x="130" y="552"/>
			<point x="158" y="559"/>
			<point x="300" y="559" type="curve" smooth="yes"/>
			<point x="453" y="559"/>
			<point x="479" y="551"/>
			<point x="479" y="514" type="curve" smooth="yes"/>
			<point x="479" y="478"/>
			<point x="460" y="465"/>
			<point x="320" y="411" type="curve" smooth="yes"/>
			<point x="195" y="363"/>
			<point x="140" y="334"/>
			<point x="109" y="300" type="curve" smooth="yes"/>
			<point x="74" y="262"/>
			<point x="60" y="220"/>
			<point x="60" y="163" type="curve" smooth="yes"/>
			<point x="60" y="43"/>
			<point x="127" y="-10"/>
		</contour>
	</outline>
	<anchor name="top" x="303" y="680"/>
</glyph>
<glyph name="txa-hmnp" format="2">
	<unicode hex="1E114"/>
	<advance width="682"/>
	<outline>
		<contour>
			<point x="87" y="0" type="curve"/>
			<point x="157" y="0" type="line"/>
			<point x="241" y="234"/>
			<point x="363" y="417"/>
			<point x="515" y="508" type="curve"/>
			<point x="519" y="504" type="line"/>
			<point x="469" y="390"/>
			<point x="447" y="275"/>
			<point x="447" y="172" type="curve" smooth="yes"/>
			<point x="447" y="50"/>
			<point x="479" y="-10"/>
			<point x="547" y="-10" type="curve" smooth="yes"/>
			<point x="600" y="-10"/>
			<point x="628" y="32"/>
			<point x="628" y="122" type="curve"/>
			<point x="541" y="122"/>
			<point x="521" y="135"/>
			<point x="521" y="221" type="curve" smooth="yes"/>
			<point x="521" y="317"/>
			<point x="564" y="470"/>
			<point x="621" y="554" type="curve"/>
			<point x="621" y="666" type="line"/>
			<point x="595" y="689" type="line"/>
			<point x="544" y="675"/>
			<point x="489" y="648"/>
			<point x="430" y="598" type="curve" smooth="yes"/>
			<point x="340" y="522"/>
			<point x="277" y="417"/>
			<point x="204" y="250" type="curve"/>
			<point x="199" y="250" type="line"/>
			<point x="223" y="397"/>
			<point x="231" y="474"/>
			<point x="231" y="546" type="curve" smooth="yes"/>
			<point x="231" y="647"/>
			<point x="200" y="692"/>
			<point x="143" y="692" type="curve" smooth="yes"/>
			<point x="86" y="692"/>
			<point x="54" y="645"/>
			<point x="54" y="560" type="curve"/>
			<point x="133" y="560"/>
			<point x="156" y="542"/>
			<point x="156" y="483" type="curve" smooth="yes"/>
			<point x="156" y="412"/>
			<point x="138" y="279"/>
		</contour>
	</outline>
	<anchor name="top" x="355" y="680"/>
</glyph>
<glyph name="fa-hmnp" format="2">
	<unicode hex="1E115"/>
	<advance width="609"/>
	<outline>
		<contour>
			<point x="71" y="0" type="line"/>
			<point x="141" y="0" type="line"/>
			<point x="141" y="135" type="line"/>
			<point x="145" y="135" type="line"/>
			<point x="209" y="40"/>
			<point x="281" y="-10"/>
			<point x="388" y="-10" type="curve" smooth="yes"/>
			<point x="501" y="-10"/>
			<point x="550" y="41"/>
			<point x="550" y="150" type="curve" smooth="yes"/>
			<point x="550" y="222"/>
			<point x="525" y="263"/>
			<point x="493" y="263" type="curve" smooth="yes"/>
			<point x="488" y="263"/>
			<point x="483" y="262"/>
			<point x="476" y="260" type="curve"/>
			<point x="480" y="246"/>
			<point x="482" y="230"/>
			<point x="482" y="209" type="curve" smooth="yes"/>
			<point x="482" y="149"/>
			<point x="463" y="129"/>
			<point x="378" y="129" type="curve" smooth="yes"/>
			<point x="292" y="129"/>
			<point x="228" y="148"/>
			<point x="154" y="204" type="curve"/>
			<point x="167" y="217"/>
			<point x="195" y="233"/>
			<point x="287" y="269" type="curve" smooth="yes"/>
			<point x="410" y="317"/>
			<point x="471" y="346"/>
			<point x="505" y="383" type="curve" smooth="yes"/>
			<point x="536" y="417"/>
			<point x="548" y="462"/>
			<point x="548" y="515" type="curve" smooth="yes"/>
			<point x="548" y="631"/>
			<point x="477" y="692"/>
			<point x="338" y="692" type="curve" smooth="yes"/>
			<point x="228" y="692"/>
			<point x="173" y="664"/>
			<point x="152" y="592" type="curve"/>
			<point x="147" y="592" type="line"/>
			<point x="149" y="621"/>
			<point x="150" y="642"/>
			<point x="150" y="664" type="curve" smooth="yes"/>
			<point x="150" y="680" type="line"/>
			<point x="81" y="680" type="line"/>
			<point x="81" y="423" type="line"/>
			<point x="150" y="423" type="line"/>
			<point x="150" y="462" type="line" smooth="yes"/>
			<point x="150" y="535"/>
			<point x="188" y="559"/>
			<point x="314" y="559" type="curve" smooth="yes"/>
			<point x="458" y="559"/>
			<point x="483" y="551"/>
			<point x="483" y="514" type="curve" smooth="yes"/>
			<point x="483" y="478"/>
			<point x="466" y="465"/>
			<point x="322" y="411" type="curve" smooth="yes"/>
			<point x="201" y="366"/>
			<point x="143" y="334"/>
			<point x="112" y="300" type="curve" smooth="yes"/>
			<point x="78" y="262"/>
			<point x="71" y="217"/>
			<point x="71" y="145" type="curve" smooth="yes"/>
		</contour>
	</outline>
	<anchor name="top" x="314" y="680"/>
</glyph>
<glyph name="ra-hmnp" format="2">
	<unicode hex="1E116"/>
	<advance width="657"/>
	<outline>
		<contour>
			<point x="342" y="-10" type="curve" smooth="yes"/>
			<point x="524" y="-10"/>
			<point x="583" y="46"/>
			<point x="583" y="214" type="curve" smooth="yes"/>
			<point x="583" y="497" type="line" smooth="yes"/>
			<point x="583" y="634"/>
			<point x="541" y="692"/>
			<point x="443" y="692" type="curve" smooth="yes"/>
			<point x="347" y="692"/>
			<point x="298" y="636"/>
			<point x="298" y="515" type="curve" smooth="yes"/>
			<point x="298" y="423"/>
			<point x="328" y="369"/>
			<point x="381" y="369" type="curve" smooth="yes"/>
			<point x="423" y="369"/>
			<point x="442" y="402"/>
			<point x="442" y="474" type="curve"/>
			<point x="380" y="474"/>
			<point x="362" y="483"/>
			<point x="362" y="512" type="curve" smooth="yes"/>
			<point x="362" y="543"/>
			<point x="383" y="554"/>
			<point x="439" y="554" type="curve" smooth="yes"/>
			<point x="498" y="554"/>
			<point x="514" y="540"/>
			<point x="514" y="486" type="curve" smooth="yes"/>
			<point x="514" y="231" type="line" smooth="yes"/>
			<point x="514" y="147"/>
			<point x="479" y="129"/>
			<point x="337" y="129" type="curve" smooth="yes"/>
			<point x="204" y="129"/>
			<point x="169" y="146"/>
			<point x="169" y="187" type="curve" smooth="yes"/>
			<point x="169" y="226"/>
			<point x="200" y="240"/>
			<point x="264" y="242" type="curve"/>
			<point x="264" y="376" type="line"/>
			<point x="152" y="434"/>
			<point x="109" y="474"/>
			<point x="109" y="517" type="curve" smooth="yes"/>
			<point x="109" y="552"/>
			<point x="135" y="561"/>
			<point x="220" y="561" type="curve"/>
			<point x="220" y="646"/>
			<point x="198" y="692"/>
			<point x="145" y="692" type="curve" smooth="yes"/>
			<point x="84" y="692"/>
			<point x="45" y="640"/>
			<point x="45" y="539" type="curve" smooth="yes"/>
			<point x="45" y="500"/>
			<point x="50" y="464"/>
			<point x="60" y="435" type="curve" smooth="yes"/>
			<point x="80" y="377"/>
			<point x="115" y="331"/>
			<point x="174" y="288" type="curve"/>
			<point x="174" y="284" type="line"/>
			<point x="128" y="265"/>
			<point x="98" y="226"/>
			<point x="98" y="153" type="curve" smooth="yes"/>
			<point x="98" y="37"/>
			<point x="170" y="-10"/>
		</contour>
	</outline>
	<anchor name="top" x="318" y="680"/>
</glyph>
<glyph name="qa-hmnp" format="2">
	<unicode hex="1E117"/>
	<advance width="626"/>
	<outline>
		<contour>
			<point x="118" y="-236" type="curve" smooth="yes"/>
			<point x="172" y="-236"/>
			<point x="203" y="-186"/>
			<point x="203" y="-95" type="curve" smooth="yes"/>
			<point x="203" y="548" type="line"/>
			<point x="407" y="548" type="line" smooth="yes"/>
			<point x="455" y="548"/>
			<point x="465" y="535"/>
			<point x="465" y="500" type="curve" smooth="yes"/>
			<point x="465" y="471"/>
			<point x="454" y="416"/>
			<point x="439" y="356" type="curve" smooth="yes"/>
			<point x="419" y="277"/>
			<point x="400" y="192"/>
			<point x="400" y="133" type="curve" smooth="yes"/>
			<point x="400" y="77"/>
			<point x="411" y="45"/>
			<point x="429" y="21" type="curve" smooth="yes"/>
			<point x="445" y="0"/>
			<point x="466" y="-10"/>
			<point x="495" y="-10" type="curve" smooth="yes"/>
			<point x="543" y="-10"/>
			<point x="575" y="33"/>
			<point x="575" y="122" type="curve"/>
			<point x="498" y="122"/>
			<point x="477" y="135"/>
			<point x="477" y="185" type="curve" smooth="yes"/>
			<point x="477" y="214"/>
			<point x="488" y="266"/>
			<point x="504" y="332" type="curve" smooth="yes"/>
			<point x="521" y="403"/>
			<point x="541" y="490"/>
			<point x="541" y="553" type="curve" smooth="yes"/>
			<point x="541" y="645"/>
			<point x="511" y="680"/>
			<point x="411" y="680" type="curve" smooth="yes"/>
			<point x="62" y="680" type="line"/>
			<point x="34" y="602" type="line"/>
			<point x="34" y="548" type="line"/>
			<point x="134" y="548" type="line"/>
			<point x="134" y="-10" type="line" smooth="yes"/>
			<point x="134" y="-103"/>
			<point x="111" y="-115"/>
			<point x="41" y="-115" type="curve"/>
			<point x="41" y="-194"/>
			<point x="66" y="-236"/>
		</contour>
	</outline>
	<anchor name="top" x="303" y="680"/>
</glyph>
<glyph name="ya-hmnp" format="2">
	<unicode hex="1E118"/>
	<advance width="667"/>
	<outline>
		<contour>
			<point x="355" y="-10" type="curve" smooth="yes"/>
			<point x="552" y="-10"/>
			<point x="613" y="51"/>
			<point x="613" y="192" type="curve" smooth="yes"/>
			<point x="613" y="281"/>
			<point x="585" y="331"/>
			<point x="522" y="371" type="curve"/>
			<point x="572" y="407"/>
			<point x="594" y="448"/>
			<point x="594" y="524" type="curve" smooth="yes"/>
			<point x="594" y="634"/>
			<point x="537" y="692"/>
			<point x="442" y="692" type="curve" smooth="yes"/>
			<point x="349" y="692"/>
			<point x="290" y="636"/>
			<point x="290" y="523" type="curve" smooth="yes"/>
			<point x="290" y="453"/>
			<point x="309" y="409"/>
			<point x="356" y="374" type="curve"/>
			<point x="298" y="340"/>
			<point x="270" y="303"/>
			<point x="270" y="259" type="curve" smooth="yes"/>
			<point x="270" y="226"/>
			<point x="284" y="206"/>
			<point x="324" y="203" type="curve"/>
			<point x="332" y="247"/>
			<point x="365" y="280"/>
			<point x="444" y="322" type="curve"/>
			<point x="514" y="281"/>
			<point x="541" y="251"/>
			<point x="541" y="206" type="curve" smooth="yes"/>
			<point x="541" y="143"/>
			<point x="493" y="129"/>
			<point x="353" y="129" type="curve" smooth="yes"/>
			<point x="187" y="129"/>
			<point x="148" y="151"/>
			<point x="148" y="234" type="curve" smooth="yes"/>
			<point x="148" y="680" type="line"/>
			<point x="79" y="680" type="line"/>
			<point x="79" y="218" type="line" smooth="yes"/>
			<point x="79" y="40"/>
			<point x="154" y="-10"/>
		</contour>
		<contour>
			<point x="440" y="418" type="curve"/>
			<point x="381" y="449"/>
			<point x="354" y="474"/>
			<point x="354" y="509" type="curve" smooth="yes"/>
			<point x="354" y="545"/>
			<point x="376" y="560"/>
			<point x="441" y="560" type="curve" smooth="yes"/>
			<point x="507" y="560"/>
			<point x="529" y="545"/>
			<point x="529" y="511" type="curve" smooth="yes"/>
			<point x="529" y="478"/>
			<point x="502" y="450"/>
		</contour>
	</outline>
	<anchor name="top" x="341" y="680"/>
</glyph>
<glyph name="nqa-hmnp" format="2">
	<unicode hex="1E119"/>
	<advance width="646"/>
	<outline>
		<contour>
			<point x="318" y="-10" type="curve" smooth="yes"/>
			<point x="509" y="-10"/>
			<point x="568" y="45"/>
			<point x="568" y="214" type="curve" smooth="yes"/>
			<point x="568" y="680" type="line"/>
			<point x="498" y="680" type="line"/>
			<point x="498" y="231" type="line" smooth="yes"/>
			<point x="498" y="149"/>
			<point x="465" y="129"/>
			<point x="330" y="129" type="curve" smooth="yes"/>
			<point x="158" y="129"/>
			<point x="130" y="137"/>
			<point x="130" y="171" type="curve" smooth="yes"/>
			<point x="130" y="199"/>
			<point x="154" y="217"/>
			<point x="233" y="252" type="curve" smooth="yes"/>
			<point x="302" y="283"/>
			<point x="333" y="303"/>
			<point x="359" y="335" type="curve" smooth="yes"/>
			<point x="389" y="371"/>
			<point x="402" y="419"/>
			<point x="402" y="499" type="curve" smooth="yes"/>
			<point x="402" y="643"/>
			<point x="347" y="692"/>
			<point x="236" y="692" type="curve" smooth="yes"/>
			<point x="127" y="692"/>
			<point x="75" y="635"/>
			<point x="75" y="534" type="curve" smooth="yes"/>
			<point x="75" y="458"/>
			<point x="107" y="411"/>
			<point x="162" y="411" type="curve" smooth="yes"/>
			<point x="204" y="411"/>
			<point x="222" y="440"/>
			<point x="222" y="501" type="curve"/>
			<point x="152" y="501"/>
			<point x="134" y="507"/>
			<point x="134" y="531" type="curve" smooth="yes"/>
			<point x="134" y="555"/>
			<point x="155" y="565"/>
			<point x="228" y="565" type="curve" smooth="yes"/>
			<point x="311" y="565"/>
			<point x="335" y="550"/>
			<point x="335" y="497" type="curve" smooth="yes"/>
			<point x="335" y="443"/>
			<point x="318" y="421"/>
			<point x="220" y="373" type="curve" smooth="yes"/>
			<point x="142" y="335"/>
			<point x="114" y="311"/>
			<point x="94" y="280" type="curve" smooth="yes"/>
			<point x="74" y="249"/>
			<point x="65" y="217"/>
			<point x="65" y="167" type="curve" smooth="yes"/>
			<point x="65" y="36"/>
			<point x="124" y="-10"/>
		</contour>
	</outline>
	<anchor name="top" x="331" y="680"/>
</glyph>
<glyph name="pa-hmnp" format="2">
	<unicode hex="1E11A"/>
	<advance width="603"/>
	<outline>
		<contour>
			<point x="295" y="-10" type="curve" smooth="yes"/>
			<point x="474" y="-10"/>
			<point x="529" y="45"/>
			<point x="529" y="213" type="curve" smooth="yes"/>
			<point x="529" y="468" type="line" smooth="yes"/>
			<point x="529" y="627"/>
			<point x="486" y="680"/>
			<point x="352" y="680" type="curve" smooth="yes"/>
			<point x="97" y="680" type="line"/>
			<point x="69" y="602" type="line"/>
			<point x="69" y="548" type="line"/>
			<point x="221" y="548" type="line"/>
			<point x="223" y="545" type="line"/>
			<point x="181" y="489"/>
			<point x="166" y="447"/>
			<point x="166" y="403" type="curve" smooth="yes"/>
			<point x="166" y="339"/>
			<point x="201" y="295"/>
			<point x="253" y="295" type="curve" smooth="yes"/>
			<point x="302" y="295"/>
			<point x="328" y="337"/>
			<point x="328" y="401" type="curve"/>
			<point x="268" y="401"/>
			<point x="241" y="407"/>
			<point x="241" y="442" type="curve" smooth="yes"/>
			<point x="241" y="469"/>
			<point x="257" y="499"/>
			<point x="290" y="548" type="curve"/>
			<point x="368" y="548" type="line" smooth="yes"/>
			<point x="433" y="548"/>
			<point x="460" y="527"/>
			<point x="460" y="459" type="curve" smooth="yes"/>
			<point x="460" y="231" type="line" smooth="yes"/>
			<point x="460" y="152"/>
			<point x="426" y="129"/>
			<point x="295" y="129" type="curve" smooth="yes"/>
			<point x="165" y="129"/>
			<point x="129" y="150"/>
			<point x="129" y="223" type="curve" smooth="yes"/>
			<point x="129" y="242"/>
			<point x="131" y="257"/>
			<point x="136" y="274" type="curve"/>
			<point x="130" y="277"/>
			<point x="125" y="278"/>
			<point x="119" y="278" type="curve" smooth="yes"/>
			<point x="83" y="278"/>
			<point x="61" y="234"/>
			<point x="61" y="171" type="curve" smooth="yes"/>
			<point x="61" y="40"/>
			<point x="124" y="-10"/>
		</contour>
	</outline>
	<anchor name="top" x="292" y="680"/>
</glyph>
<glyph name="xya-hmnp" format="2">
	<unicode hex="1E11B"/>
	<advance width="660"/>
	<outline>
		<contour>
			<point x="229" y="-10" type="curve" smooth="yes"/>
			<point x="347" y="-10"/>
			<point x="387" y="54"/>
			<point x="387" y="157" type="curve" smooth="yes"/>
			<point x="387" y="264"/>
			<point x="340" y="302"/>
			<point x="294" y="302" type="curve" smooth="yes"/>
			<point x="250" y="302"/>
			<point x="234" y="269"/>
			<point x="234" y="208" type="curve"/>
			<point x="299" y="208"/>
			<point x="324" y="200"/>
			<point x="324" y="169" type="curve" smooth="yes"/>
			<point x="324" y="141"/>
			<point x="303" y="129"/>
			<point x="231" y="129" type="curve" smooth="yes"/>
			<point x="156" y="129"/>
			<point x="136" y="141"/>
			<point x="136" y="200" type="curve" smooth="yes"/>
			<point x="136" y="284"/>
			<point x="177" y="388"/>
			<point x="283" y="548" type="curve"/>
			<point x="421" y="548" type="line" smooth="yes"/>
			<point x="485" y="548"/>
			<point x="512" y="527"/>
			<point x="512" y="459" type="curve" smooth="yes"/>
			<point x="512" y="0" type="line"/>
			<point x="581" y="0" type="line"/>
			<point x="581" y="468" type="line" smooth="yes"/>
			<point x="581" y="627"/>
			<point x="537" y="680"/>
			<point x="404" y="680" type="curve" smooth="yes"/>
			<point x="108" y="680" type="line"/>
			<point x="80" y="603" type="line"/>
			<point x="80" y="548" type="line"/>
			<point x="199" y="548" type="line"/>
			<point x="199" y="544" type="line"/>
			<point x="118" y="416"/>
			<point x="66" y="301"/>
			<point x="66" y="179" type="curve" smooth="yes"/>
			<point x="66" y="43"/>
			<point x="124" y="-10"/>
		</contour>
	</outline>
	<anchor name="top" x="341" y="680"/>
</glyph>
<glyph name="npa-hmnp" format="2">
	<unicode hex="1E11C"/>
	<advance width="626"/>
	<outline>
		<contour>
			<point x="77" y="0" type="line"/>
			<point x="146" y="0" type="line"/>
			<point x="146" y="31" type="line" smooth="yes"/>
			<point x="146" y="84"/>
			<point x="179" y="111"/>
			<point x="311" y="111" type="curve" smooth="yes"/>
			<point x="444" y="111"/>
			<point x="478" y="84"/>
			<point x="478" y="31" type="curve" smooth="yes"/>
			<point x="478" y="0" type="line"/>
			<point x="547" y="0" type="line"/>
			<point x="547" y="473" type="line" smooth="yes"/>
			<point x="547" y="639"/>
			<point x="478" y="692"/>
			<point x="307" y="692" type="curve" smooth="yes"/>
			<point x="140" y="692"/>
			<point x="71" y="642"/>
			<point x="71" y="511" type="curve" smooth="yes"/>
			<point x="71" y="428"/>
			<point x="104" y="376"/>
			<point x="159" y="376" type="curve" smooth="yes"/>
			<point x="203" y="376"/>
			<point x="225" y="409"/>
			<point x="225" y="474" type="curve"/>
			<point x="156" y="474"/>
			<point x="135" y="483"/>
			<point x="135" y="509" type="curve" smooth="yes"/>
			<point x="135" y="543"/>
			<point x="159" y="554"/>
			<point x="305" y="554" type="curve" smooth="yes"/>
			<point x="452" y="554"/>
			<point x="478" y="535"/>
			<point x="478" y="464" type="curve" smooth="yes"/>
			<point x="478" y="248" type="line" smooth="yes"/>
			<point x="478" y="213"/>
			<point x="478" y="189"/>
			<point x="480" y="150" type="curve"/>
			<point x="475" y="150" type="line"/>
			<point x="453" y="220"/>
			<point x="404" y="250"/>
			<point x="311" y="250" type="curve" smooth="yes"/>
			<point x="218" y="250"/>
			<point x="170" y="220"/>
			<point x="149" y="150" type="curve"/>
			<point x="143" y="150" type="line"/>
			<point x="145" y="189"/>
			<point x="146" y="211"/>
			<point x="146" y="240" type="curve" smooth="yes"/>
			<point x="146" y="272" type="line"/>
			<point x="77" y="272" type="line"/>
		</contour>
	</outline>
	<anchor name="top" x="304" y="680"/>
</glyph>
<glyph name="dla-hmnp" format="2">
	<unicode hex="1E11D"/>
	<advance width="709"/>
	<outline>
		<contour>
			<point x="81" y="0" type="line"/>
			<point x="150" y="0" type="line"/>
			<point x="150" y="31" type="line" smooth="yes"/>
			<point x="150" y="232"/>
			<point x="341" y="496"/>
			<point x="517" y="540" type="curve"/>
			<point x="518" y="536" type="line"/>
			<point x="500" y="518"/>
			<point x="491" y="496"/>
			<point x="491" y="464" type="curve" smooth="yes"/>
			<point x="491" y="416"/>
			<point x="515" y="366"/>
			<point x="539" y="318" type="curve" smooth="yes"/>
			<point x="564" y="267"/>
			<point x="582" y="225"/>
			<point x="582" y="188" type="curve" smooth="yes"/>
			<point x="582" y="142"/>
			<point x="565" y="129"/>
			<point x="491" y="129" type="curve" smooth="yes"/>
			<point x="414" y="129"/>
			<point x="394" y="140"/>
			<point x="394" y="170" type="curve" smooth="yes"/>
			<point x="394" y="200"/>
			<point x="420" y="208"/>
			<point x="483" y="208" type="curve"/>
			<point x="483" y="270"/>
			<point x="467" y="305"/>
			<point x="424" y="305" type="curve" smooth="yes"/>
			<point x="377" y="305"/>
			<point x="330" y="263"/>
			<point x="330" y="158" type="curve" smooth="yes"/>
			<point x="330" y="53"/>
			<point x="375" y="-10"/>
			<point x="492" y="-10" type="curve" smooth="yes"/>
			<point x="597" y="-10"/>
			<point x="653" y="42"/>
			<point x="653" y="168" type="curve" smooth="yes"/>
			<point x="653" y="240"/>
			<point x="627" y="298"/>
			<point x="598" y="356" type="curve" smooth="yes"/>
			<point x="576" y="400"/>
			<point x="558" y="440"/>
			<point x="558" y="479" type="curve" smooth="yes"/>
			<point x="558" y="524"/>
			<point x="575" y="542"/>
			<point x="630" y="557" type="curve"/>
			<point x="630" y="680" type="line"/>
			<point x="584" y="680" type="line" smooth="yes"/>
			<point x="511" y="680"/>
			<point x="447" y="664"/>
			<point x="390" y="621" type="curve" smooth="yes"/>
			<point x="291" y="546"/>
			<point x="209" y="413"/>
			<point x="154" y="268" type="curve"/>
			<point x="148" y="268" type="line"/>
			<point x="150" y="304"/>
			<point x="150" y="325"/>
			<point x="150" y="343" type="curve" smooth="yes"/>
			<point x="150" y="494" type="line" smooth="yes"/>
			<point x="150" y="550"/>
			<point x="167" y="564"/>
			<point x="231" y="564" type="curve"/>
			<point x="231" y="640"/>
			<point x="211" y="692"/>
			<point x="156" y="692" type="curve" smooth="yes"/>
			<point x="100" y="692"/>
			<point x="81" y="654"/>
			<point x="81" y="556" type="curve" smooth="yes"/>
		</contour>
	</outline>
	<anchor name="top" x="353" y="680"/>
</glyph>
<glyph name="npla-hmnp" format="2">
	<unicode hex="1E11E"/>
	<advance width="670"/>
	<outline>
		<contour>
			<point x="79" y="0" type="line"/>
			<point x="148" y="0" type="line"/>
			<point x="148" y="462" type="line" smooth="yes"/>
			<point x="148" y="523"/>
			<point x="171" y="548"/>
			<point x="238" y="548" type="curve" smooth="yes"/>
			<point x="285" y="548" type="line" smooth="yes"/>
			<point x="335" y="548"/>
			<point x="356" y="549"/>
			<point x="383" y="552" type="curve"/>
			<point x="383" y="548" type="line"/>
			<point x="315" y="511"/>
			<point x="286" y="449"/>
			<point x="286" y="343" type="curve" smooth="yes"/>
			<point x="286" y="188" type="line" smooth="yes"/>
			<point x="286" y="43"/>
			<point x="335" y="-10"/>
			<point x="442" y="-10" type="curve" smooth="yes"/>
			<point x="548" y="-10"/>
			<point x="597" y="43"/>
			<point x="597" y="188" type="curve" smooth="yes"/>
			<point x="597" y="357" type="line" smooth="yes"/>
			<point x="597" y="446"/>
			<point x="575" y="505"/>
			<point x="519" y="536" type="curve"/>
			<point x="519" y="540" type="line"/>
			<point x="592" y="566" type="line"/>
			<point x="592" y="680" type="line"/>
			<point x="256" y="680" type="line" smooth="yes"/>
			<point x="130" y="680"/>
			<point x="79" y="624"/>
			<point x="79" y="476" type="curve" smooth="yes"/>
		</contour>
		<contour>
			<point x="441" y="129" type="curve" smooth="yes"/>
			<point x="376" y="129"/>
			<point x="356" y="153"/>
			<point x="356" y="217" type="curve" smooth="yes"/>
			<point x="356" y="354" type="line" smooth="yes"/>
			<point x="356" y="443"/>
			<point x="381" y="483"/>
			<point x="460" y="518" type="curve"/>
			<point x="512" y="482"/>
			<point x="528" y="445"/>
			<point x="528" y="349" type="curve" smooth="yes"/>
			<point x="528" y="217" type="line" smooth="yes"/>
			<point x="528" y="153"/>
			<point x="508" y="129"/>
		</contour>
	</outline>
	<anchor name="top" x="352" y="680"/>
</glyph>
<glyph name="hah-hmnp" format="2">
	<unicode hex="1E11F"/>
	<advance width="657"/>
	<outline>
		<contour>
			<point x="327" y="-10" type="curve" smooth="yes"/>
			<point x="521" y="-10"/>
			<point x="580" y="47"/>
			<point x="580" y="214" type="curve" smooth="yes"/>
			<point x="580" y="498" type="line" smooth="yes"/>
			<point x="580" y="646"/>
			<point x="537" y="692"/>
			<point x="444" y="692" type="curve" smooth="yes"/>
			<point x="381" y="692"/>
			<point x="344" y="666"/>
			<point x="328" y="605" type="curve"/>
			<point x="323" y="605" type="line"/>
			<point x="306" y="666"/>
			<point x="267" y="692"/>
			<point x="204" y="692" type="curve" smooth="yes"/>
			<point x="112" y="692"/>
			<point x="66" y="632"/>
			<point x="66" y="524" type="curve" smooth="yes"/>
			<point x="66" y="432"/>
			<point x="98" y="383"/>
			<point x="149" y="383" type="curve" smooth="yes"/>
			<point x="191" y="383"/>
			<point x="212" y="417"/>
			<point x="212" y="475" type="curve"/>
			<point x="149" y="475"/>
			<point x="130" y="484"/>
			<point x="130" y="513" type="curve" smooth="yes"/>
			<point x="130" y="545"/>
			<point x="156" y="554"/>
			<point x="214" y="554" type="curve" smooth="yes"/>
			<point x="274" y="554"/>
			<point x="290" y="538"/>
			<point x="290" y="477" type="curve" smooth="yes"/>
			<point x="290" y="429" type="line"/>
			<point x="359" y="429" type="line"/>
			<point x="359" y="477" type="line" smooth="yes"/>
			<point x="359" y="537"/>
			<point x="377" y="554"/>
			<point x="433" y="554" type="curve" smooth="yes"/>
			<point x="493" y="554"/>
			<point x="510" y="538"/>
			<point x="510" y="475" type="curve" smooth="yes"/>
			<point x="510" y="228" type="line" smooth="yes"/>
			<point x="510" y="144"/>
			<point x="478" y="129"/>
			<point x="326" y="129" type="curve" smooth="yes"/>
			<point x="150" y="129"/>
			<point x="127" y="140"/>
			<point x="127" y="172" type="curve" smooth="yes"/>
			<point x="127" y="188"/>
			<point x="135" y="199"/>
			<point x="155" y="205" type="curve" smooth="yes"/>
			<point x="180" y="212"/>
			<point x="219" y="214"/>
			<point x="286" y="214" type="curve"/>
			<point x="286" y="276"/>
			<point x="260" y="309"/>
			<point x="199" y="309" type="curve" smooth="yes"/>
			<point x="114" y="309"/>
			<point x="63" y="255"/>
			<point x="63" y="169" type="curve" smooth="yes"/>
			<point x="63" y="41"/>
			<point x="131" y="-10"/>
		</contour>
	</outline>
	<anchor name="top" x="318" y="680"/>
</glyph>
<glyph name="mla-hmnp" format="2">
	<unicode hex="1E120"/>
	<advance width="635"/>
	<outline>
		<contour>
			<point x="212" y="-10" type="curve" smooth="yes"/>
			<point x="274" y="-10"/>
			<point x="308" y="12"/>
			<point x="322" y="80" type="curve"/>
			<point x="328" y="80" type="line"/>
			<point x="341" y="18"/>
			<point x="374" y="-10"/>
			<point x="440" y="-10" type="curve" smooth="yes"/>
			<point x="529" y="-10"/>
			<point x="572" y="42"/>
			<point x="572" y="155" type="curve" smooth="yes"/>
			<point x="572" y="233"/>
			<point x="551" y="278"/>
			<point x="514" y="278" type="curve" smooth="yes"/>
			<point x="508" y="278"/>
			<point x="502" y="277"/>
			<point x="497" y="274" type="curve"/>
			<point x="501" y="258"/>
			<point x="503" y="232"/>
			<point x="503" y="210" type="curve" smooth="yes"/>
			<point x="503" y="150"/>
			<point x="487" y="129"/>
			<point x="432" y="129" type="curve" smooth="yes"/>
			<point x="378" y="129"/>
			<point x="359" y="150"/>
			<point x="359" y="202" type="curve" smooth="yes"/>
			<point x="359" y="272" type="line"/>
			<point x="290" y="272" type="line"/>
			<point x="290" y="202" type="line" smooth="yes"/>
			<point x="290" y="148"/>
			<point x="270" y="129"/>
			<point x="217" y="129" type="curve" smooth="yes"/>
			<point x="164" y="129"/>
			<point x="146" y="148"/>
			<point x="146" y="205" type="curve" smooth="yes"/>
			<point x="146" y="464" type="line" smooth="yes"/>
			<point x="146" y="541"/>
			<point x="174" y="554"/>
			<point x="339" y="554" type="curve" smooth="yes"/>
			<point x="478" y="554"/>
			<point x="506" y="546"/>
			<point x="506" y="512" type="curve" smooth="yes"/>
			<point x="506" y="483"/>
			<point x="484" y="474"/>
			<point x="414" y="474" type="curve"/>
			<point x="414" y="411"/>
			<point x="436" y="376"/>
			<point x="481" y="376" type="curve" smooth="yes"/>
			<point x="535" y="376"/>
			<point x="569" y="427"/>
			<point x="569" y="515" type="curve" smooth="yes"/>
			<point x="569" y="643"/>
			<point x="501" y="692"/>
			<point x="328" y="692" type="curve" smooth="yes"/>
			<point x="137" y="692"/>
			<point x="77" y="637"/>
			<point x="77" y="472" type="curve" smooth="yes"/>
			<point x="77" y="173" type="line" smooth="yes"/>
			<point x="77" y="43"/>
			<point x="115" y="-10"/>
		</contour>
	</outline>
	<anchor name="top" x="322" y="680"/>
</glyph>
<glyph name="pla-hmnp" format="2">
	<unicode hex="1E121"/>
	<advance width="603"/>
	<outline>
		<contour>
			<point x="67" y="0" type="line"/>
			<point x="534" y="0" type="line"/>
			<point x="534" y="227" type="line"/>
			<point x="465" y="227" type="line"/>
			<point x="465" y="132" type="line"/>
			<point x="137" y="132" type="line"/>
			<point x="137" y="148" type="line" smooth="yes"/>
			<point x="137" y="190"/>
			<point x="157" y="203"/>
			<point x="290" y="254" type="curve" smooth="yes"/>
			<point x="421" y="304"/>
			<point x="466" y="332"/>
			<point x="497" y="368" type="curve" smooth="yes"/>
			<point x="528" y="403"/>
			<point x="541" y="452"/>
			<point x="541" y="509" type="curve" smooth="yes"/>
			<point x="541" y="639"/>
			<point x="470" y="692"/>
			<point x="303" y="692" type="curve" smooth="yes"/>
			<point x="138" y="692"/>
			<point x="71" y="633"/>
			<point x="71" y="524" type="curve" smooth="yes"/>
			<point x="71" y="448"/>
			<point x="99" y="404"/>
			<point x="152" y="404" type="curve" smooth="yes"/>
			<point x="194" y="404"/>
			<point x="215" y="432"/>
			<point x="215" y="489" type="curve"/>
			<point x="150" y="489"/>
			<point x="130" y="496"/>
			<point x="130" y="520" type="curve" smooth="yes"/>
			<point x="130" y="551"/>
			<point x="158" y="559"/>
			<point x="302" y="559" type="curve" smooth="yes"/>
			<point x="449" y="559"/>
			<point x="476" y="551"/>
			<point x="476" y="510" type="curve" smooth="yes"/>
			<point x="476" y="473"/>
			<point x="453" y="451"/>
			<point x="312" y="394" type="curve" smooth="yes"/>
			<point x="200" y="349"/>
			<point x="144" y="320"/>
			<point x="113" y="286" type="curve" smooth="yes"/>
			<point x="81" y="250"/>
			<point x="67" y="210"/>
			<point x="67" y="153" type="curve" smooth="yes"/>
		</contour>
	</outline>
	<anchor name="top" x="301" y="680"/>
</glyph>
<glyph name="ga-hmnp" format="2">
	<unicode hex="1E122"/>
	<advance width="598"/>
	<outline>
		<contour>
			<point x="317" y="-10" type="curve" smooth="yes"/>
			<point x="484" y="-10"/>
			<point x="545" y="42"/>
			<point x="545" y="163" type="curve" smooth="yes"/>
			<point x="545" y="250"/>
			<point x="513" y="299"/>
			<point x="457" y="299" type="curve" smooth="yes"/>
			<point x="413" y="299"/>
			<point x="392" y="267"/>
			<point x="392" y="206" type="curve"/>
			<point x="463" y="206"/>
			<point x="482" y="198"/>
			<point x="482" y="173" type="curve" smooth="yes"/>
			<point x="482" y="137"/>
			<point x="443" y="129"/>
			<point x="310" y="129" type="curve" smooth="yes"/>
			<point x="171" y="129"/>
			<point x="135" y="139"/>
			<point x="135" y="192" type="curve" smooth="yes"/>
			<point x="135" y="237"/>
			<point x="166" y="267"/>
			<point x="240" y="303" type="curve" smooth="yes"/>
			<point x="310" y="337"/>
			<point x="387" y="361"/>
			<point x="512" y="387" type="curve"/>
			<point x="512" y="493" type="line"/>
			<point x="358" y="493" type="line" smooth="yes"/>
			<point x="280" y="493"/>
			<point x="235" y="492"/>
			<point x="194" y="488" type="curve"/>
			<point x="194" y="493" type="line"/>
			<point x="341" y="530"/>
			<point x="404" y="569"/>
			<point x="404" y="630" type="curve" smooth="yes"/>
			<point x="404" y="668"/>
			<point x="380" y="690"/>
			<point x="323" y="703" type="curve"/>
			<point x="290" y="612"/>
			<point x="212" y="548"/>
			<point x="77" y="490" type="curve"/>
			<point x="77" y="383" type="line"/>
			<point x="118" y="383" type="line" smooth="yes"/>
			<point x="152" y="383"/>
			<point x="206" y="384"/>
			<point x="275" y="387" type="curve"/>
			<point x="275" y="382" type="line"/>
			<point x="120" y="331"/>
			<point x="58" y="270"/>
			<point x="58" y="165" type="curve" smooth="yes"/>
			<point x="58" y="40"/>
			<point x="125" y="-10"/>
		</contour>
	</outline>
	<anchor name="top" x="300" y="680"/>
</glyph>
<glyph name="rra-hmnp" format="2">
	<unicode hex="1E123"/>
	<advance width="543"/>
	<outline>
		<contour>
			<point x="412" y="-10" type="curve" smooth="yes"/>
			<point x="460" y="-10"/>
			<point x="492" y="32"/>
			<point x="492" y="122" type="curve"/>
			<point x="419" y="122"/>
			<point x="395" y="135"/>
			<point x="395" y="181" type="curve" smooth="yes"/>
			<point x="395" y="205"/>
			<point x="405" y="244"/>
			<point x="418" y="287" type="curve" smooth="yes"/>
			<point x="434" y="339"/>
			<point x="450" y="399"/>
			<point x="450" y="447" type="curve" smooth="yes"/>
			<point x="450" y="541"/>
			<point x="419" y="578"/>
			<point x="309" y="578" type="curve" smooth="yes"/>
			<point x="176" y="578" type="line" smooth="yes"/>
			<point x="131" y="578"/>
			<point x="118" y="583"/>
			<point x="109" y="663" type="curve" smooth="yes"/>
			<point x="107" y="680" type="line"/>
			<point x="57" y="680" type="line"/>
			<point x="57" y="447" type="line"/>
			<point x="312" y="447" type="line" smooth="yes"/>
			<point x="360" y="447"/>
			<point x="373" y="432"/>
			<point x="373" y="397" type="curve" smooth="yes"/>
			<point x="373" y="375"/>
			<point x="364" y="338"/>
			<point x="351" y="296" type="curve" smooth="yes"/>
			<point x="334" y="241"/>
			<point x="317" y="177"/>
			<point x="317" y="127" type="curve" smooth="yes"/>
			<point x="317" y="76"/>
			<point x="328" y="45"/>
			<point x="346" y="21" type="curve" smooth="yes"/>
			<point x="362" y="0"/>
			<point x="383" y="-10"/>
		</contour>
	</outline>
	<anchor name="top" x="247" y="680"/>
</glyph>
<glyph name="a-hmnp" format="2">
	<unicode hex="1E124"/>
	<advance width="481"/>
	<outline>
		<contour>
			<point x="333" y="0" type="line"/>
			<point x="402" y="0" type="line"/>
			<point x="402" y="487" type="line" smooth="yes"/>
			<point x="402" y="634"/>
			<point x="340" y="692"/>
			<point x="222" y="692" type="curve" smooth="yes"/>
			<point x="103" y="692"/>
			<point x="41" y="636"/>
			<point x="41" y="510" type="curve" smooth="yes"/>
			<point x="41" y="420"/>
			<point x="78" y="369"/>
			<point x="131" y="369" type="curve" smooth="yes"/>
			<point x="177" y="369"/>
			<point x="201" y="398"/>
			<point x="201" y="474" type="curve"/>
			<point x="130" y="474"/>
			<point x="105" y="482"/>
			<point x="105" y="510" type="curve" smooth="yes"/>
			<point x="105" y="541"/>
			<point x="129" y="554"/>
			<point x="215" y="554" type="curve" smooth="yes"/>
			<point x="314" y="554"/>
			<point x="333" y="538"/>
			<point x="333" y="472" type="curve" smooth="yes"/>
		</contour>
	</outline>
	<anchor name="top" x="221" y="680"/>
</glyph>
<glyph name="aa-hmnp" format="2">
	<unicode hex="1E125"/>
	<advance width="509"/>
	<outline>
		<contour>
			<point x="266" y="-10" type="curve" smooth="yes"/>
			<point x="380" y="-10"/>
			<point x="429" y="37"/>
			<point x="429" y="142" type="curve" smooth="yes"/>
			<point x="429" y="222"/>
			<point x="397" y="265"/>
			<point x="345" y="265" type="curve" smooth="yes"/>
			<point x="304" y="265"/>
			<point x="285" y="238"/>
			<point x="285" y="181" type="curve"/>
			<point x="350" y="181"/>
			<point x="367" y="173"/>
			<point x="367" y="152" type="curve" smooth="yes"/>
			<point x="367" y="126"/>
			<point x="344" y="117"/>
			<point x="270" y="117" type="curve" smooth="yes"/>
			<point x="181" y="117"/>
			<point x="163" y="131"/>
			<point x="163" y="191" type="curve" smooth="yes"/>
			<point x="163" y="347" type="line"/>
			<point x="153" y="326" type="line"/>
			<point x="270" y="326" type="line" smooth="yes"/>
			<point x="404" y="326"/>
			<point x="452" y="366"/>
			<point x="452" y="505" type="curve" smooth="yes"/>
			<point x="452" y="648"/>
			<point x="399" y="692"/>
			<point x="245" y="692" type="curve" smooth="yes"/>
			<point x="106" y="692"/>
			<point x="48" y="659"/>
			<point x="48" y="577" type="curve" smooth="yes"/>
			<point x="48" y="536"/>
			<point x="62" y="505"/>
			<point x="90" y="505" type="curve" smooth="yes"/>
			<point x="95" y="505"/>
			<point x="102" y="506"/>
			<point x="109" y="509" type="curve"/>
			<point x="106" y="516"/>
			<point x="105" y="524"/>
			<point x="105" y="530" type="curve" smooth="yes"/>
			<point x="105" y="559"/>
			<point x="132" y="565"/>
			<point x="240" y="565" type="curve" smooth="yes"/>
			<point x="361" y="565"/>
			<point x="387" y="556"/>
			<point x="387" y="506" type="curve" smooth="yes"/>
			<point x="387" y="459"/>
			<point x="361" y="449"/>
			<point x="274" y="449" type="curve" smooth="yes"/>
			<point x="94" y="449" type="line"/>
			<point x="94" y="181" type="line" smooth="yes"/>
			<point x="94" y="47"/>
			<point x="142" y="-10"/>
		</contour>
	</outline>
	<anchor name="top" x="250" y="680"/>
</glyph>
<glyph name="i-hmnp" format="2">
	<unicode hex="1E126"/>
	<advance width="492"/>
	<outline>
		<contour>
			<point x="260" y="-10" type="curve" smooth="yes"/>
			<point x="374" y="-10"/>
			<point x="432" y="44"/>
			<point x="432" y="163" type="curve" smooth="yes"/>
			<point x="432" y="249"/>
			<point x="399" y="302"/>
			<point x="340" y="302" type="curve" smooth="yes"/>
			<point x="298" y="302"/>
			<point x="278" y="273"/>
			<point x="278" y="208" type="curve"/>
			<point x="347" y="208"/>
			<point x="368" y="199"/>
			<point x="368" y="172" type="curve" smooth="yes"/>
			<point x="368" y="139"/>
			<point x="343" y="129"/>
			<point x="261" y="129" type="curve" smooth="yes"/>
			<point x="166" y="129"/>
			<point x="146" y="143"/>
			<point x="146" y="208" type="curve" smooth="yes"/>
			<point x="146" y="487" type="line" smooth="yes"/>
			<point x="146" y="539"/>
			<point x="166" y="554"/>
			<point x="217" y="554" type="curve" smooth="yes"/>
			<point x="261" y="554"/>
			<point x="277" y="544"/>
			<point x="288" y="502" type="curve" smooth="yes"/>
			<point x="301" y="453" type="line" smooth="yes"/>
			<point x="314" y="403"/>
			<point x="336" y="380"/>
			<point x="375" y="380" type="curve" smooth="yes"/>
			<point x="420" y="380"/>
			<point x="444" y="413"/>
			<point x="444" y="478" type="curve"/>
			<point x="422" y="478" type="line" smooth="yes"/>
			<point x="378" y="478"/>
			<point x="366" y="490"/>
			<point x="355" y="529" type="curve" smooth="yes"/>
			<point x="334" y="602" type="line" smooth="yes"/>
			<point x="315" y="669"/>
			<point x="279" y="692"/>
			<point x="210" y="692" type="curve" smooth="yes"/>
			<point x="111" y="692"/>
			<point x="77" y="638"/>
			<point x="77" y="502" type="curve" smooth="yes"/>
			<point x="77" y="180" type="line" smooth="yes"/>
			<point x="77" y="50"/>
			<point x="128" y="-10"/>
		</contour>
	</outline>
	<anchor name="top" x="227" y="680"/>
</glyph>
<glyph name="u-hmnp" format="2">
	<unicode hex="1E127"/>
	<advance width="560"/>
	<outline>
		<contour>
			<point x="283" y="-10" type="curve" smooth="yes"/>
			<point x="440" y="-10"/>
			<point x="503" y="46"/>
			<point x="503" y="190" type="curve" smooth="yes"/>
			<point x="503" y="306"/>
			<point x="458" y="389"/>
			<point x="335" y="435" type="curve"/>
			<point x="335" y="439" type="line"/>
			<point x="478" y="557" type="line"/>
			<point x="478" y="680" type="line"/>
			<point x="96" y="680" type="line"/>
			<point x="69" y="602" type="line"/>
			<point x="69" y="548" type="line"/>
			<point x="362" y="548" type="line"/>
			<point x="362" y="544" type="line"/>
			<point x="252" y="453" type="line"/>
			<point x="252" y="325" type="line"/>
			<point x="394" y="284"/>
			<point x="435" y="248"/>
			<point x="435" y="193" type="curve" smooth="yes"/>
			<point x="435" y="142"/>
			<point x="396" y="129"/>
			<point x="277" y="129" type="curve" smooth="yes"/>
			<point x="160" y="129"/>
			<point x="121" y="138"/>
			<point x="121" y="172" type="curve" smooth="yes"/>
			<point x="121" y="198"/>
			<point x="143" y="208"/>
			<point x="210" y="208" type="curve"/>
			<point x="210" y="269"/>
			<point x="190" y="299"/>
			<point x="146" y="299" type="curve" smooth="yes"/>
			<point x="90" y="299"/>
			<point x="57" y="252"/>
			<point x="57" y="162" type="curve" smooth="yes"/>
			<point x="57" y="43"/>
			<point x="119" y="-10"/>
		</contour>
	</outline>
	<anchor name="top" x="271" y="680"/>
</glyph>
<glyph name="o-hmnp" format="2">
	<unicode hex="1E128"/>
	<advance width="662"/>
	<outline>
		<contour>
			<point x="229" y="-10" type="curve" smooth="yes"/>
			<point x="337" y="-10"/>
			<point x="381" y="45"/>
			<point x="381" y="182" type="curve" smooth="yes"/>
			<point x="381" y="501" type="line" smooth="yes"/>
			<point x="381" y="638"/>
			<point x="337" y="692"/>
			<point x="229" y="692" type="curve" smooth="yes"/>
			<point x="122" y="692"/>
			<point x="78" y="638"/>
			<point x="78" y="501" type="curve" smooth="yes"/>
			<point x="78" y="182" type="line" smooth="yes"/>
			<point x="78" y="45"/>
			<point x="122" y="-10"/>
		</contour>
		<contour>
			<point x="229" y="129" type="curve" smooth="yes"/>
			<point x="167" y="129"/>
			<point x="147" y="150"/>
			<point x="147" y="212" type="curve" smooth="yes"/>
			<point x="147" y="470" type="line" smooth="yes"/>
			<point x="147" y="533"/>
			<point x="167" y="554"/>
			<point x="229" y="554" type="curve" smooth="yes"/>
			<point x="292" y="554"/>
			<point x="312" y="533"/>
			<point x="312" y="470" type="curve" smooth="yes"/>
			<point x="312" y="212" type="line" smooth="yes"/>
			<point x="312" y="150"/>
			<point x="292" y="129"/>
		</contour>
		<contour>
			<point x="365" y="277" type="line"/>
			<point x="558" y="277" type="line"/>
			<point x="558" y="408" type="line"/>
			<point x="365" y="408" type="line"/>
		</contour>
		<contour>
			<point x="511" y="0" type="line"/>
			<point x="581" y="0" type="line"/>
			<point x="581" y="680" type="line"/>
			<point x="511" y="680" type="line"/>
		</contour>
	</outline>
	<anchor name="top" x="355" y="680"/>
</glyph>
<glyph name="oo-hmnp" format="2">
	<unicode hex="1E129"/>
	<advance width="561"/>
	<outline>
		<contour>
			<point x="289" y="-10" type="curve" smooth="yes"/>
			<point x="461" y="-10"/>
			<point x="503" y="49"/>
			<point x="503" y="184" type="curve" smooth="yes"/>
			<point x="503" y="330"/>
			<point x="459" y="383"/>
			<point x="329" y="383" type="curve" smooth="yes"/>
			<point x="213" y="383" type="line" smooth="yes"/>
			<point x="159" y="383"/>
			<point x="145" y="389"/>
			<point x="145" y="408" type="curve" smooth="yes"/>
			<point x="145" y="426"/>
			<point x="156" y="436"/>
			<point x="205" y="436" type="curve"/>
			<point x="205" y="509" type="line"/>
			<point x="155" y="509"/>
			<point x="145" y="517"/>
			<point x="145" y="534" type="curve" smooth="yes"/>
			<point x="145" y="555"/>
			<point x="159" y="565"/>
			<point x="290" y="565" type="curve" smooth="yes"/>
			<point x="420" y="565"/>
			<point x="436" y="559"/>
			<point x="436" y="534" type="curve" smooth="yes"/>
			<point x="436" y="513"/>
			<point x="417" y="508"/>
			<point x="355" y="508" type="curve"/>
			<point x="355" y="455"/>
			<point x="373" y="423"/>
			<point x="414" y="423" type="curve" smooth="yes"/>
			<point x="467" y="423"/>
			<point x="495" y="465"/>
			<point x="495" y="540" type="curve" smooth="yes"/>
			<point x="495" y="644"/>
			<point x="449" y="692"/>
			<point x="286" y="692" type="curve" smooth="yes"/>
			<point x="126" y="692"/>
			<point x="75" y="646"/>
			<point x="75" y="558" type="curve" smooth="yes"/>
			<point x="75" y="510"/>
			<point x="91" y="485"/>
			<point x="127" y="473" type="curve"/>
			<point x="127" y="468" type="line"/>
			<point x="93" y="457"/>
			<point x="75" y="426"/>
			<point x="75" y="379" type="curve" smooth="yes"/>
			<point x="75" y="295"/>
			<point x="121" y="256"/>
			<point x="231" y="256" type="curve" smooth="yes"/>
			<point x="323" y="256" type="line" smooth="yes"/>
			<point x="415" y="256"/>
			<point x="438" y="244"/>
			<point x="438" y="190" type="curve" smooth="yes"/>
			<point x="438" y="132"/>
			<point x="414" y="117"/>
			<point x="287" y="117" type="curve" smooth="yes"/>
			<point x="160" y="117"/>
			<point x="130" y="128"/>
			<point x="130" y="179" type="curve" smooth="yes"/>
			<point x="130" y="195"/>
			<point x="133" y="208"/>
			<point x="137" y="222" type="curve"/>
			<point x="131" y="225"/>
			<point x="126" y="226"/>
			<point x="115" y="226" type="curve" smooth="yes"/>
			<point x="88" y="226"/>
			<point x="66" y="189"/>
			<point x="66" y="132" type="curve" smooth="yes"/>
			<point x="66" y="27"/>
			<point x="137" y="-10"/>
		</contour>
	</outline>
	<anchor name="top" x="283" y="680"/>
</glyph>
<glyph name="e-hmnp" format="2">
	<unicode hex="1E12A"/>
	<advance width="526"/>
	<outline>
		<contour>
			<point x="142" y="0" type="line"/>
			<point x="211" y="0" type="line"/>
			<point x="211" y="16" type="line" smooth="yes"/>
			<point x="211" y="44"/>
			<point x="218" y="55"/>
			<point x="242" y="55" type="curve" smooth="yes"/>
			<point x="263" y="55"/>
			<point x="282" y="43"/>
			<point x="306" y="27" type="curve" smooth="yes"/>
			<point x="337" y="7"/>
			<point x="364" y="-10"/>
			<point x="403" y="-10" type="curve" smooth="yes"/>
			<point x="460" y="-10"/>
			<point x="488" y="30"/>
			<point x="488" y="92" type="curve" smooth="yes"/>
			<point x="488" y="157"/>
			<point x="466" y="189"/>
			<point x="434" y="189" type="curve" smooth="yes"/>
			<point x="427" y="189"/>
			<point x="423" y="188"/>
			<point x="418" y="186" type="curve"/>
			<point x="422" y="170"/>
			<point x="423" y="158"/>
			<point x="423" y="149" type="curve" smooth="yes"/>
			<point x="423" y="130"/>
			<point x="415" y="122"/>
			<point x="398" y="122" type="curve" smooth="yes"/>
			<point x="376" y="122"/>
			<point x="360" y="132"/>
			<point x="334" y="150" type="curve" smooth="yes"/>
			<point x="304" y="171"/>
			<point x="288" y="180"/>
			<point x="266" y="180" type="curve" smooth="yes"/>
			<point x="237" y="180"/>
			<point x="221" y="166"/>
			<point x="213" y="137" type="curve"/>
			<point x="208" y="137" type="line"/>
			<point x="210" y="186"/>
			<point x="211" y="214"/>
			<point x="211" y="247" type="curve" smooth="yes"/>
			<point x="211" y="308" type="line"/>
			<point x="421" y="308" type="line"/>
			<point x="450" y="382" type="line"/>
			<point x="450" y="436" type="line"/>
			<point x="211" y="436" type="line"/>
			<point x="211" y="680" type="line"/>
			<point x="66" y="680" type="line"/>
			<point x="37" y="601" type="line"/>
			<point x="37" y="548" type="line"/>
			<point x="142" y="548" type="line"/>
		</contour>
	</outline>
	<anchor name="top" x="262" y="680"/>
</glyph>
<glyph name="ee-hmnp" format="2">
	<unicode hex="1E12B"/>
	<advance width="490"/>
	<outline>
		<contour>
			<point x="262" y="-10" type="curve" smooth="yes"/>
			<point x="368" y="-10"/>
			<point x="417" y="43"/>
			<point x="417" y="188" type="curve" smooth="yes"/>
			<point x="417" y="357" type="line" smooth="yes"/>
			<point x="417" y="446"/>
			<point x="395" y="505"/>
			<point x="340" y="536" type="curve"/>
			<point x="340" y="540" type="line"/>
			<point x="413" y="566" type="line"/>
			<point x="413" y="680" type="line"/>
			<point x="68" y="680" type="line"/>
			<point x="41" y="602" type="line"/>
			<point x="41" y="548" type="line"/>
			<point x="98" y="548" type="line" smooth="yes"/>
			<point x="154" y="548"/>
			<point x="175" y="549"/>
			<point x="204" y="552" type="curve"/>
			<point x="204" y="548" type="line"/>
			<point x="135" y="511"/>
			<point x="107" y="449"/>
			<point x="107" y="343" type="curve" smooth="yes"/>
			<point x="107" y="188" type="line" smooth="yes"/>
			<point x="107" y="43"/>
			<point x="156" y="-10"/>
		</contour>
		<contour>
			<point x="262" y="129" type="curve" smooth="yes"/>
			<point x="197" y="129"/>
			<point x="176" y="153"/>
			<point x="176" y="217" type="curve" smooth="yes"/>
			<point x="176" y="354" type="line" smooth="yes"/>
			<point x="176" y="443"/>
			<point x="202" y="483"/>
			<point x="280" y="518" type="curve"/>
			<point x="332" y="482"/>
			<point x="348" y="445"/>
			<point x="348" y="349" type="curve" smooth="yes"/>
			<point x="348" y="217" type="line" smooth="yes"/>
			<point x="348" y="153"/>
			<point x="327" y="129"/>
		</contour>
	</outline>
	<anchor name="top" x="240" y="680"/>
</glyph>
<glyph name="w-hmnp" format="2">
	<unicode hex="1E12C"/>
	<advance width="557"/>
	<outline>
		<contour>
			<point x="283" y="-10" type="curve" smooth="yes"/>
			<point x="437" y="-10"/>
			<point x="504" y="45"/>
			<point x="504" y="185" type="curve" smooth="yes"/>
			<point x="504" y="274"/>
			<point x="476" y="340"/>
			<point x="404" y="371" type="curve"/>
			<point x="404" y="375" type="line"/>
			<point x="466" y="404"/>
			<point x="490" y="448"/>
			<point x="490" y="519" type="curve" smooth="yes"/>
			<point x="490" y="639"/>
			<point x="423" y="692"/>
			<point x="282" y="692" type="curve" smooth="yes"/>
			<point x="135" y="692"/>
			<point x="70" y="637"/>
			<point x="70" y="516" type="curve" smooth="yes"/>
			<point x="70" y="431"/>
			<point x="104" y="383"/>
			<point x="159" y="383" type="curve" smooth="yes"/>
			<point x="202" y="383"/>
			<point x="222" y="413"/>
			<point x="222" y="475" type="curve"/>
			<point x="155" y="475"/>
			<point x="133" y="485"/>
			<point x="133" y="512" type="curve" smooth="yes"/>
			<point x="133" y="544"/>
			<point x="164" y="554"/>
			<point x="278" y="554" type="curve" smooth="yes"/>
			<point x="385" y="554"/>
			<point x="421" y="540"/>
			<point x="421" y="493" type="curve" smooth="yes"/>
			<point x="421" y="450"/>
			<point x="386" y="422"/>
			<point x="310" y="402" type="curve"/>
			<point x="310" y="281" type="line"/>
			<point x="398" y="268"/>
			<point x="437" y="235"/>
			<point x="437" y="190" type="curve" smooth="yes"/>
			<point x="437" y="143"/>
			<point x="396" y="129"/>
			<point x="278" y="129" type="curve" smooth="yes"/>
			<point x="160" y="129"/>
			<point x="122" y="140"/>
			<point x="122" y="173" type="curve" smooth="yes"/>
			<point x="122" y="198"/>
			<point x="144" y="208"/>
			<point x="211" y="208" type="curve"/>
			<point x="211" y="269"/>
			<point x="191" y="299"/>
			<point x="147" y="299" type="curve" smooth="yes"/>
			<point x="91" y="299"/>
			<point x="58" y="251"/>
			<point x="58" y="163" type="curve" smooth="yes"/>
			<point x="58" y="42"/>
			<point x="116" y="-10"/>
		</contour>
	</outline>
	<anchor name="top" x="273" y="680"/>
</glyph>
<glyph name="bSomThw-hmnp" format="2">
  <unicode hex="1E130"/>
  <anchor x="-241" y="680" name="_top"/>
  <outline>
    <contour>
      <point x="-279" y="786" type="line"/>
      <point x="-202" y="786" type="line"/>
      <point x="-202" y="1002" type="line"/>
      <point x="-279" y="1002" type="line"/>
    </contour>
  </outline>
</glyph>
<glyph name="mSomThw-hmnp" format="2">
	<unicode hex="1E131"/>
	<outline>
		<contour>
			<point x="-402" y="800" type="line"/>
			<point x="-122" y="800" type="line"/>
			<point x="-122" y="882" type="line"/>
			<point x="-402" y="882" type="line"/>
		</contour>
		<contour>
			<point x="-262" y="927" type="curve" smooth="yes"/>
			<point x="-230" y="927"/>
			<point x="-207" y="948"/>
			<point x="-207" y="982" type="curve" smooth="yes"/>
			<point x="-207" y="1016"/>
			<point x="-230" y="1037"/>
			<point x="-262" y="1037" type="curve" smooth="yes"/>
			<point x="-294" y="1037"/>
			<point x="-317" y="1016"/>
			<point x="-317" y="982" type="curve" smooth="yes"/>
			<point x="-317" y="948"/>
			<point x="-294" y="927"/>
		</contour>
	</outline>
	<anchor name="_top" x="-262" y="680"/>
</glyph>
<glyph name="jSomThw-hmnp" format="2">
	<unicode hex="1E132"/>
	<outline>
		<contour>
			<point x="-264" y="775" type="curve" smooth="yes"/>
			<point x="-165" y="775"/>
			<point x="-121" y="829"/>
			<point x="-121" y="932" type="curve"/>
			<point x="-166" y="932" type="line"/>
			<point x="-170" y="886"/>
			<point x="-197" y="870"/>
			<point x="-264" y="870" type="curve" smooth="yes"/>
			<point x="-332" y="870"/>
			<point x="-360" y="886"/>
			<point x="-364" y="932" type="curve"/>
			<point x="-409" y="932" type="line"/>
			<point x="-409" y="829"/>
			<point x="-364" y="775"/>
		</contour>
	</outline>
	<anchor name="_top" x="-265" y="680"/>
</glyph>
<glyph name="vSomThw-hmnp" format="2">
	<unicode hex="1E133"/>
	<outline>
		<contour>
			<point x="-267" y="767" type="curve" smooth="yes"/>
			<point x="-206" y="767"/>
			<point x="-172" y="811"/>
			<point x="-172" y="880" type="curve" smooth="yes"/>
			<point x="-172" y="949"/>
			<point x="-206" y="992"/>
			<point x="-267" y="992" type="curve" smooth="yes"/>
			<point x="-328" y="992"/>
			<point x="-363" y="949"/>
			<point x="-363" y="880" type="curve" smooth="yes"/>
			<point x="-363" y="811"/>
			<point x="-328" y="767"/>
		</contour>
		<contour>
			<point x="-267" y="846" type="curve" smooth="yes"/>
			<point x="-304" y="846"/>
			<point x="-321" y="858"/>
			<point x="-321" y="880" type="curve" smooth="yes"/>
			<point x="-321" y="901"/>
			<point x="-304" y="913"/>
			<point x="-267" y="913" type="curve" smooth="yes"/>
			<point x="-231" y="913"/>
			<point x="-214" y="901"/>
			<point x="-214" y="880" type="curve" smooth="yes"/>
			<point x="-214" y="858"/>
			<point x="-231" y="846"/>
		</contour>
	</outline>
	<anchor name="_top" x="-267" y="680"/>
</glyph>
<glyph name="sSomThw-hmnp" format="2">
  <unicode hex="1E134"/>
  <anchor x="-265" y="680" name="_top"/>
  <outline>
    <contour>
      <point x="-405" y="800" type="line"/>
      <point x="-125" y="800" type="line"/>
      <point x="-125" y="882" type="line"/>
      <point x="-405" y="882" type="line"/>
    </contour>
  </outline>
</glyph>
<glyph name="gSomThw-hmnp" format="2">
	<unicode hex="1E135"/>
	<outline>
		<contour>
			<point x="-403" y="787" type="curve"/>
			<point x="-359" y="787" type="line"/>
			<point x="-354" y="832"/>
			<point x="-328" y="849"/>
			<point x="-260" y="849" type="curve" smooth="yes"/>
			<point x="-192" y="849"/>
			<point x="-165" y="832"/>
			<point x="-160" y="787" type="curve"/>
			<point x="-115" y="787" type="line"/>
			<point x="-115" y="890"/>
			<point x="-160" y="944"/>
			<point x="-260" y="944" type="curve" smooth="yes"/>
			<point x="-359" y="944"/>
			<point x="-403" y="890"/>
		</contour>
	</outline>
	<anchor name="_top" x="-260" y="680"/>
</glyph>
<glyph name="dSomThw-hmnp" format="2">
	<unicode hex="1E136"/>
	<outline>
		<contour>
			<point x="-260" y="767" type="curve" smooth="yes"/>
			<point x="-192" y="767"/>
			<point x="-158" y="806"/>
			<point x="-158" y="866" type="curve" smooth="yes"/>
			<point x="-158" y="924"/>
			<point x="-192" y="963"/>
			<point x="-260" y="963" type="curve" smooth="yes"/>
			<point x="-328" y="963"/>
			<point x="-363" y="924"/>
			<point x="-363" y="866" type="curve" smooth="yes"/>
			<point x="-363" y="806"/>
			<point x="-328" y="767"/>
		</contour>
		<contour>
			<point x="-260" y="839" type="curve" smooth="yes"/>
			<point x="-302" y="839"/>
			<point x="-321" y="845"/>
			<point x="-321" y="866" type="curve" smooth="yes"/>
			<point x="-321" y="887"/>
			<point x="-302" y="894"/>
			<point x="-260" y="894" type="curve" smooth="yes"/>
			<point x="-219" y="894"/>
			<point x="-199" y="887"/>
			<point x="-199" y="866" type="curve" smooth="yes"/>
			<point x="-199" y="845"/>
			<point x="-219" y="839"/>
		</contour>
		<contour>
			<point x="-291" y="927" type="line"/>
			<point x="-229" y="927" type="line"/>
			<point x="-229" y="1045" type="line"/>
			<point x="-291" y="1045" type="line"/>
		</contour>
	</outline>
	<anchor name="_top" x="-260" y="680"/>
</glyph>
<glyph name="oov-hmnp" format="2">
	<unicode hex="1E137"/>
	<advance width="464"/>
	<outline>
		<contour>
			<point x="317" y="338" type="line"/>
			<point x="387" y="338" type="line"/>
			<point x="387" y="529" type="line"/>
			<point x="317" y="529" type="line"/>
			<point x="289" y="491"/>
			<point x="252" y="476"/>
			<point x="198" y="476" type="curve" smooth="yes"/>
			<point x="144" y="476"/>
			<point x="125" y="490"/>
			<point x="125" y="519" type="curve" smooth="yes"/>
			<point x="125" y="554"/>
			<point x="175" y="581"/>
			<point x="303" y="581" type="curve" smooth="yes"/>
			<point x="385" y="581" type="line"/>
			<point x="385" y="659"/>
			<point x="346" y="692"/>
			<point x="252" y="692" type="curve" smooth="yes"/>
			<point x="141" y="692"/>
			<point x="58" y="634"/>
			<point x="58" y="521" type="curve" smooth="yes"/>
			<point x="58" y="426"/>
			<point x="102" y="376"/>
			<point x="190" y="376" type="curve" smooth="yes"/>
			<point x="248" y="376"/>
			<point x="295" y="398"/>
			<point x="314" y="449" type="curve"/>
			<point x="319" y="449" type="line"/>
			<point x="318" y="434"/>
			<point x="317" y="418"/>
			<point x="317" y="403" type="curve" smooth="yes"/>
		</contour>
	</outline>
</glyph>
<glyph name="pes-hmnp" format="2">
	<unicode hex="1E138"/>
	<advance width="430"/>
	<outline>
		<contour>
			<point x="280" y="338" type="line"/>
			<point x="349" y="338" type="line"/>
			<point x="349" y="680" type="line"/>
			<point x="280" y="680" type="line"/>
			<point x="277" y="580"/>
			<point x="234" y="536"/>
			<point x="76" y="536" type="curve" smooth="yes"/>
			<point x="53" y="536" type="line"/>
			<point x="53" y="468"/>
			<point x="73" y="426"/>
			<point x="145" y="426" type="curve" smooth="yes"/>
			<point x="207" y="426"/>
			<point x="257" y="456"/>
			<point x="279" y="525" type="curve"/>
			<point x="283" y="525" type="line"/>
			<point x="281" y="467"/>
			<point x="280" y="427"/>
			<point x="280" y="376" type="curve" smooth="yes"/>
		</contour>
	</outline>
</glyph>
<glyph name="khabTheeb-hmnp" format="2">
	<unicode hex="1E139"/>
	<advance width="430"/>
	<outline>
		<contour>
			<point x="81" y="338" type="line"/>
			<point x="150" y="338" type="line"/>
			<point x="153" y="438"/>
			<point x="196" y="481"/>
			<point x="354" y="481" type="curve" smooth="yes"/>
			<point x="378" y="481" type="line"/>
			<point x="378" y="550"/>
			<point x="357" y="591"/>
			<point x="285" y="591" type="curve" smooth="yes"/>
			<point x="224" y="591"/>
			<point x="173" y="561"/>
			<point x="151" y="493" type="curve"/>
			<point x="147" y="493" type="line"/>
			<point x="149" y="549"/>
			<point x="150" y="590"/>
			<point x="150" y="642" type="curve" smooth="yes"/>
			<point x="150" y="680" type="line"/>
			<point x="81" y="680" type="line"/>
		</contour>
	</outline>
</glyph>
<glyph name="khuamLuas-hmnp" format="2">
	<unicode hex="1E13A"/>
	<advance width="447"/>
	<outline>
		<contour>
			<point x="97" y="330" type="curve" smooth="yes"/>
			<point x="105" y="330"/>
			<point x="111" y="331"/>
			<point x="118" y="335" type="curve"/>
			<point x="115" y="345"/>
			<point x="114" y="357"/>
			<point x="114" y="368" type="curve" smooth="yes"/>
			<point x="114" y="425"/>
			<point x="134" y="454"/>
			<point x="223" y="454" type="curve" smooth="yes"/>
			<point x="313" y="454"/>
			<point x="333" y="425"/>
			<point x="333" y="368" type="curve" smooth="yes"/>
			<point x="333" y="357"/>
			<point x="332" y="345"/>
			<point x="329" y="335" type="curve"/>
			<point x="336" y="331"/>
			<point x="342" y="330"/>
			<point x="350" y="330" type="curve" smooth="yes"/>
			<point x="376" y="330"/>
			<point x="396" y="364"/>
			<point x="396" y="428" type="curve" smooth="yes"/>
			<point x="396" y="522"/>
			<point x="348" y="571"/>
			<point x="223" y="571" type="curve" smooth="yes"/>
			<point x="99" y="571"/>
			<point x="51" y="523"/>
			<point x="51" y="428" type="curve" smooth="yes"/>
			<point x="51" y="364"/>
			<point x="71" y="330"/>
		</contour>
		<contour>
			<point x="189" y="538" type="line"/>
			<point x="258" y="538" type="line"/>
			<point x="258" y="680" type="line"/>
			<point x="189" y="680" type="line"/>
		</contour>
	</outline>
</glyph>
<glyph name="poos-hmnp" format="2">
	<unicode hex="1E13B"/>
	<advance width="458"/>
	<outline>
		<contour>
			<point x="231" y="330" type="curve" smooth="yes"/>
			<point x="355" y="330"/>
			<point x="391" y="373"/>
			<point x="391" y="441" type="curve" smooth="yes"/>
			<point x="391" y="484"/>
			<point x="371" y="517"/>
			<point x="346" y="517" type="curve" smooth="yes"/>
			<point x="339" y="517"/>
			<point x="333" y="515"/>
			<point x="328" y="511" type="curve"/>
			<point x="331" y="502"/>
			<point x="332" y="493"/>
			<point x="332" y="486" type="curve" smooth="yes"/>
			<point x="332" y="454"/>
			<point x="312" y="439"/>
			<point x="233" y="439" type="curve" smooth="yes"/>
			<point x="154" y="439"/>
			<point x="135" y="454"/>
			<point x="135" y="474" type="curve" smooth="yes"/>
			<point x="135" y="489"/>
			<point x="150" y="504"/>
			<point x="178" y="519" type="curve" smooth="yes"/>
			<point x="216" y="539"/>
			<point x="280" y="562"/>
			<point x="382" y="587" type="curve"/>
			<point x="382" y="680" type="line"/>
			<point x="91" y="680" type="line"/>
			<point x="70" y="631" type="line"/>
			<point x="70" y="588" type="line"/>
			<point x="128" y="588" type="line" smooth="yes"/>
			<point x="146" y="588"/>
			<point x="179" y="589"/>
			<point x="208" y="591" type="curve"/>
			<point x="208" y="586" type="line"/>
			<point x="104" y="551"/>
			<point x="67" y="513"/>
			<point x="67" y="447" type="curve" smooth="yes"/>
			<point x="67" y="377"/>
			<point x="107" y="330"/>
		</contour>
	</outline>
</glyph>
<glyph name="xwXw-hmnp" format="2">
	<unicode hex="1E13C"/>
	<advance width="633"/>
	<outline>
		<contour>
			<point x="485" y="-226" type="line"/>
			<point x="554" y="-226" type="line"/>
			<point x="554" y="498" type="line" smooth="yes"/>
			<point x="554" y="646"/>
			<point x="505" y="692"/>
			<point x="418" y="692" type="curve" smooth="yes"/>
			<point x="355" y="692"/>
			<point x="320" y="666"/>
			<point x="304" y="605" type="curve"/>
			<point x="299" y="605" type="line"/>
			<point x="281" y="666"/>
			<point x="245" y="692"/>
			<point x="180" y="692" type="curve" smooth="yes"/>
			<point x="89" y="692"/>
			<point x="41" y="630"/>
			<point x="41" y="515" type="curve" smooth="yes"/>
			<point x="41" y="421"/>
			<point x="75" y="369"/>
			<point x="127" y="369" type="curve" smooth="yes"/>
			<point x="168" y="369"/>
			<point x="190" y="402"/>
			<point x="190" y="474" type="curve"/>
			<point x="125" y="474"/>
			<point x="105" y="484"/>
			<point x="105" y="512" type="curve" smooth="yes"/>
			<point x="105" y="543"/>
			<point x="126" y="554"/>
			<point x="190" y="554" type="curve" smooth="yes"/>
			<point x="251" y="554"/>
			<point x="268" y="538"/>
			<point x="268" y="475" type="curve" smooth="yes"/>
			<point x="268" y="429" type="line"/>
			<point x="337" y="429" type="line"/>
			<point x="337" y="475" type="line" smooth="yes"/>
			<point x="337" y="538"/>
			<point x="355" y="554"/>
			<point x="409" y="554" type="curve" smooth="yes"/>
			<point x="467" y="554"/>
			<point x="485" y="539"/>
			<point x="485" y="475" type="curve" smooth="yes"/>
		</contour>
	</outline>
</glyph>
<glyph name="khuSaim-hmnp" format="2">
	<unicode hex="1E13D"/>
	<advance width="697"/>
	<outline>
		<contour>
			<point x="81" y="0" type="line"/>
			<point x="361" y="0" type="line"/>
			<point x="361" y="223" type="line" smooth="yes"/>
			<point x="361" y="286"/>
			<point x="380" y="307"/>
			<point x="443" y="307" type="curve" smooth="yes"/>
			<point x="505" y="307"/>
			<point x="524" y="286"/>
			<point x="524" y="223" type="curve" smooth="yes"/>
			<point x="524" y="0" type="line"/>
			<point x="636" y="0" type="line"/>
			<point x="663" y="82" type="line"/>
			<point x="663" y="132" type="line"/>
			<point x="594" y="132" type="line"/>
			<point x="594" y="254" type="line" smooth="yes"/>
			<point x="594" y="392"/>
			<point x="550" y="446"/>
			<point x="443" y="446" type="curve" smooth="yes"/>
			<point x="336" y="446"/>
			<point x="292" y="392"/>
			<point x="292" y="254" type="curve" smooth="yes"/>
			<point x="292" y="132" type="line"/>
			<point x="150" y="132" type="line"/>
			<point x="150" y="680" type="line"/>
			<point x="81" y="680" type="line"/>
		</contour>
	</outline>
</glyph>
<glyph name="zero-hmnp" format="2">
	<unicode hex="1E140"/>
	<advance width="600"/>
	<outline>
		<contour>
			<point x="300" y="-10" type="curve" smooth="yes"/>
			<point x="473" y="-10"/>
			<point x="527" y="50"/>
			<point x="527" y="213" type="curve" smooth="yes"/>
			<point x="527" y="470" type="line" smooth="yes"/>
			<point x="527" y="633"/>
			<point x="473" y="692"/>
			<point x="300" y="692" type="curve" smooth="yes"/>
			<point x="129" y="692"/>
			<point x="74" y="633"/>
			<point x="74" y="470" type="curve" smooth="yes"/>
			<point x="74" y="213" type="line" smooth="yes"/>
			<point x="74" y="50"/>
			<point x="129" y="-10"/>
		</contour>
		<contour>
			<point x="300" y="129" type="curve" smooth="yes"/>
			<point x="176" y="129"/>
			<point x="143" y="150"/>
			<point x="143" y="238" type="curve" smooth="yes"/>
			<point x="143" y="445" type="line" smooth="yes"/>
			<point x="143" y="533"/>
			<point x="176" y="554"/>
			<point x="300" y="554" type="curve" smooth="yes"/>
			<point x="426" y="554"/>
			<point x="457" y="533"/>
			<point x="457" y="445" type="curve" smooth="yes"/>
			<point x="457" y="238" type="line" smooth="yes"/>
			<point x="457" y="150"/>
			<point x="426" y="129"/>
		</contour>
	</outline>
</glyph>
<glyph name="one-hmnp" format="2">
	<unicode hex="1E141"/>
	<advance width="232"/>
	<outline>
		<contour>
			<point x="81" y="0" type="line"/>
			<point x="151" y="0" type="line"/>
			<point x="151" y="680" type="line"/>
			<point x="81" y="680" type="line"/>
		</contour>
	</outline>
</glyph>
<glyph name="two-hmnp" format="2">
	<unicode hex="1E142"/>
	<advance width="465"/>
	<outline>
		<contour>
			<point x="327" y="0" type="line"/>
			<point x="397" y="0" type="line"/>
			<point x="397" y="419" type="line"/>
			<point x="138" y="419" type="line"/>
			<point x="138" y="680" type="line"/>
			<point x="68" y="680" type="line"/>
			<point x="68" y="286" type="line"/>
			<point x="327" y="286" type="line"/>
		</contour>
	</outline>
</glyph>
<glyph name="three-hmnp" format="2">
	<unicode hex="1E143"/>
	<advance width="628"/>
	<outline>
		<contour>
			<point x="280" y="0" type="line"/>
			<point x="349" y="0" type="line"/>
			<point x="349" y="490" type="line" smooth="yes"/>
			<point x="349" y="550"/>
			<point x="366" y="564"/>
			<point x="435" y="564" type="curve" smooth="yes"/>
			<point x="500" y="564"/>
			<point x="518" y="554"/>
			<point x="518" y="527" type="curve" smooth="yes"/>
			<point x="518" y="500"/>
			<point x="498" y="492"/>
			<point x="433" y="492" type="curve"/>
			<point x="433" y="429"/>
			<point x="454" y="395"/>
			<point x="496" y="395" type="curve" smooth="yes"/>
			<point x="546" y="395"/>
			<point x="582" y="439"/>
			<point x="582" y="533" type="curve" smooth="yes"/>
			<point x="582" y="626"/>
			<point x="539" y="692"/>
			<point x="443" y="692" type="curve" smooth="yes"/>
			<point x="377" y="692"/>
			<point x="337" y="665"/>
			<point x="316" y="604" type="curve"/>
			<point x="312" y="604" type="line"/>
			<point x="292" y="665"/>
			<point x="252" y="692"/>
			<point x="185" y="692" type="curve" smooth="yes"/>
			<point x="90" y="692"/>
			<point x="46" y="626"/>
			<point x="46" y="533" type="curve" smooth="yes"/>
			<point x="46" y="439"/>
			<point x="83" y="395"/>
			<point x="133" y="395" type="curve" smooth="yes"/>
			<point x="175" y="395"/>
			<point x="195" y="429"/>
			<point x="195" y="492" type="curve"/>
			<point x="130" y="492"/>
			<point x="110" y="500"/>
			<point x="110" y="527" type="curve" smooth="yes"/>
			<point x="110" y="554"/>
			<point x="129" y="564"/>
			<point x="194" y="564" type="curve" smooth="yes"/>
			<point x="262" y="564"/>
			<point x="280" y="550"/>
			<point x="280" y="490" type="curve" smooth="yes"/>
		</contour>
		<contour>
			<point x="130" y="196" type="line"/>
			<point x="471" y="196" type="line"/>
			<point x="499" y="276" type="line"/>
			<point x="499" y="326" type="line"/>
			<point x="158" y="326" type="line"/>
			<point x="130" y="247" type="line"/>
		</contour>
	</outline>
</glyph>
<glyph name="four-hmnp" format="2">
	<unicode hex="1E144"/>
	<advance width="594"/>
	<outline>
		<contour>
			<point x="298" y="-10" type="curve" smooth="yes"/>
			<point x="459" y="-10"/>
			<point x="515" y="51"/>
			<point x="515" y="217" type="curve" smooth="yes"/>
			<point x="515" y="680" type="line"/>
			<point x="84" y="680" type="line"/>
			<point x="84" y="472" type="line"/>
			<point x="134" y="472" type="line"/>
			<point x="141" y="515" type="line" smooth="yes"/>
			<point x="145" y="542"/>
			<point x="152" y="548"/>
			<point x="179" y="548" type="curve" smooth="yes"/>
			<point x="446" y="548" type="line"/>
			<point x="446" y="239" type="line" smooth="yes"/>
			<point x="446" y="148"/>
			<point x="421" y="129"/>
			<point x="297" y="129" type="curve" smooth="yes"/>
			<point x="173" y="129"/>
			<point x="128" y="145"/>
			<point x="128" y="192" type="curve" smooth="yes"/>
			<point x="128" y="235"/>
			<point x="166" y="249"/>
			<point x="272" y="249" type="curve"/>
			<point x="272" y="320"/>
			<point x="247" y="352"/>
			<point x="190" y="352" type="curve" smooth="yes"/>
			<point x="112" y="352"/>
			<point x="64" y="293"/>
			<point x="64" y="184" type="curve" smooth="yes"/>
			<point x="64" y="47"/>
			<point x="132" y="-10"/>
		</contour>
	</outline>
</glyph>
<glyph name="five-hmnp" format="2">
	<unicode hex="1E145"/>
	<advance width="642"/>
	<outline>
		<contour>
			<point x="281" y="0" type="line"/>
			<point x="361" y="0" type="line"/>
			<point x="496" y="517" type="line"/>
			<point x="609" y="517" type="line"/>
			<point x="609" y="581" type="line"/>
			<point x="585" y="680" type="line"/>
			<point x="465" y="680" type="line"/>
			<point x="325" y="127" type="line"/>
			<point x="319" y="127" type="line"/>
			<point x="179" y="680" type="line"/>
			<point x="58" y="680" type="line"/>
			<point x="34" y="581" type="line"/>
			<point x="34" y="517" type="line"/>
			<point x="145" y="517" type="line"/>
		</contour>
	</outline>
</glyph>
<glyph name="six-hmnp" format="2">
	<unicode hex="1E146"/>
	<advance width="552"/>
	<outline>
		<contour>
			<point x="404" y="0" type="line"/>
			<point x="473" y="0" type="line"/>
			<point x="473" y="480" type="line" smooth="yes"/>
			<point x="473" y="636"/>
			<point x="412" y="692"/>
			<point x="261" y="692" type="curve" smooth="yes"/>
			<point x="121" y="692"/>
			<point x="58" y="635"/>
			<point x="58" y="512" type="curve" smooth="yes"/>
			<point x="58" y="423"/>
			<point x="99" y="376"/>
			<point x="153" y="376" type="curve" smooth="yes"/>
			<point x="198" y="376"/>
			<point x="217" y="409"/>
			<point x="217" y="474" type="curve"/>
			<point x="143" y="474"/>
			<point x="122" y="482"/>
			<point x="122" y="510" type="curve" smooth="yes"/>
			<point x="122" y="543"/>
			<point x="151" y="554"/>
			<point x="260" y="554" type="curve" smooth="yes"/>
			<point x="376" y="554"/>
			<point x="404" y="537"/>
			<point x="404" y="467" type="curve" smooth="yes"/>
			<point x="404" y="285" type="line" smooth="yes"/>
			<point x="404" y="223"/>
			<point x="404" y="202"/>
			<point x="407" y="160" type="curve"/>
			<point x="402" y="160" type="line"/>
			<point x="379" y="243"/>
			<point x="290" y="295"/>
			<point x="180" y="295" type="curve" smooth="yes"/>
			<point x="81" y="295"/>
			<point x="57" y="245"/>
			<point x="57" y="161" type="curve"/>
			<point x="83" y="161" type="line" smooth="yes"/>
			<point x="320" y="161"/>
			<point x="404" y="123"/>
			<point x="404" y="26" type="curve" smooth="yes"/>
		</contour>
	</outline>
</glyph>
<glyph name="seven-hmnp" format="2">
	<unicode hex="1E147"/>
	<advance width="603"/>
	<outline>
		<contour>
			<point x="315" y="-10" type="curve" smooth="yes"/>
			<point x="483" y="-10"/>
			<point x="548" y="41"/>
			<point x="548" y="194" type="curve" smooth="yes"/>
			<point x="548" y="298"/>
			<point x="514" y="354"/>
			<point x="431" y="379" type="curve"/>
			<point x="431" y="384" type="line"/>
			<point x="495" y="407"/>
			<point x="527" y="455"/>
			<point x="527" y="536" type="curve" smooth="yes"/>
			<point x="527" y="634"/>
			<point x="479" y="692"/>
			<point x="399" y="692" type="curve" smooth="yes"/>
			<point x="334" y="692"/>
			<point x="299" y="650"/>
			<point x="299" y="569" type="curve"/>
			<point x="417" y="569"/>
			<point x="457" y="554"/>
			<point x="457" y="509" type="curve" smooth="yes"/>
			<point x="457" y="460"/>
			<point x="412" y="432"/>
			<point x="308" y="412" type="curve"/>
			<point x="308" y="285" type="line"/>
			<point x="439" y="273"/>
			<point x="481" y="252"/>
			<point x="481" y="199" type="curve" smooth="yes"/>
			<point x="481" y="146"/>
			<point x="440" y="129"/>
			<point x="314" y="129" type="curve" smooth="yes"/>
			<point x="180" y="129"/>
			<point x="148" y="149"/>
			<point x="148" y="237" type="curve" smooth="yes"/>
			<point x="148" y="680" type="line"/>
			<point x="79" y="680" type="line"/>
			<point x="79" y="218" type="line" smooth="yes"/>
			<point x="79" y="42"/>
			<point x="140" y="-10"/>
		</contour>
	</outline>
</glyph>
<glyph name="eight-hmnp" format="2">
	<unicode hex="1E148"/>
	<advance width="574"/>
	<outline>
		<contour>
			<point x="316" y="-10" type="curve" smooth="yes"/>
			<point x="448" y="-10"/>
			<point x="498" y="34"/>
			<point x="498" y="143" type="curve" smooth="yes"/>
			<point x="498" y="222"/>
			<point x="469" y="266"/>
			<point x="417" y="266" type="curve" smooth="yes"/>
			<point x="378" y="266"/>
			<point x="358" y="236"/>
			<point x="358" y="178" type="curve"/>
			<point x="417" y="178"/>
			<point x="435" y="172"/>
			<point x="435" y="150" type="curve" smooth="yes"/>
			<point x="435" y="125"/>
			<point x="409" y="117"/>
			<point x="311" y="117" type="curve" smooth="yes"/>
			<point x="211" y="117"/>
			<point x="185" y="126"/>
			<point x="185" y="175" type="curve" smooth="yes"/>
			<point x="185" y="237"/>
			<point x="254" y="291"/>
			<point x="400" y="323" type="curve"/>
			<point x="400" y="430" type="line"/>
			<point x="297" y="430" type="line" smooth="yes"/>
			<point x="156" y="430"/>
			<point x="116" y="444"/>
			<point x="116" y="494" type="curve" smooth="yes"/>
			<point x="116" y="542"/>
			<point x="153" y="557"/>
			<point x="299" y="557" type="curve" smooth="yes"/>
			<point x="439" y="557"/>
			<point x="470" y="545"/>
			<point x="470" y="499" type="curve" smooth="yes"/>
			<point x="470" y="486"/>
			<point x="468" y="474"/>
			<point x="465" y="464" type="curve"/>
			<point x="470" y="461"/>
			<point x="479" y="460"/>
			<point x="485" y="460" type="curve" smooth="yes"/>
			<point x="514" y="460"/>
			<point x="533" y="494"/>
			<point x="533" y="552" type="curve" smooth="yes"/>
			<point x="533" y="646"/>
			<point x="462" y="692"/>
			<point x="295" y="692" type="curve" smooth="yes"/>
			<point x="117" y="692"/>
			<point x="50" y="640"/>
			<point x="50" y="503" type="curve" smooth="yes"/>
			<point x="50" y="397"/>
			<point x="94" y="345"/>
			<point x="218" y="322" type="curve"/>
			<point x="218" y="318" type="line"/>
			<point x="148" y="280"/>
			<point x="118" y="226"/>
			<point x="118" y="150" type="curve" smooth="yes"/>
			<point x="118" y="37"/>
			<point x="177" y="-10"/>
		</contour>
	</outline>
</glyph>
<glyph name="nine-hmnp" format="2">
	<unicode hex="1E149"/>
	<advance width="644"/>
	<outline>
		<contour>
			<point x="401" y="0" type="curve"/>
			<point x="477" y="0" type="line"/>
			<point x="609" y="680" type="line"/>
			<point x="539" y="680" type="line"/>
			<point x="436" y="148" type="line"/>
			<point x="431" y="146" type="line"/>
			<point x="345" y="198"/>
			<point x="275" y="232"/>
			<point x="202" y="261" type="curve"/>
			<point x="202" y="266" type="line"/>
			<point x="322" y="307"/>
			<point x="377" y="380"/>
			<point x="377" y="503" type="curve" smooth="yes"/>
			<point x="377" y="630"/>
			<point x="321" y="692"/>
			<point x="214" y="692" type="curve" smooth="yes"/>
			<point x="109" y="692"/>
			<point x="54" y="635"/>
			<point x="54" y="530" type="curve" smooth="yes"/>
			<point x="54" y="449"/>
			<point x="86" y="398"/>
			<point x="142" y="398" type="curve" smooth="yes"/>
			<point x="183" y="398"/>
			<point x="205" y="430"/>
			<point x="205" y="490" type="curve"/>
			<point x="137" y="490"/>
			<point x="117" y="498"/>
			<point x="117" y="523" type="curve" smooth="yes"/>
			<point x="117" y="549"/>
			<point x="138" y="560"/>
			<point x="208" y="560" type="curve" smooth="yes"/>
			<point x="287" y="560"/>
			<point x="307" y="544"/>
			<point x="307" y="488" type="curve" smooth="yes"/>
			<point x="307" y="390"/>
			<point x="241" y="336"/>
			<point x="82" y="294" type="curve"/>
			<point x="82" y="168" type="line"/>
			<point x="180" y="131"/>
			<point x="278" y="83"/>
		</contour>
	</outline>
</glyph>
<glyph name="nyaj-hmnp" format="2">
	<unicode hex="1E14E"/>
	<advance width="705"/>
	<outline>
		<contour>
			<point x="223" y="-10" type="curve" smooth="yes"/>
			<point x="320" y="-10"/>
			<point x="363" y="48"/>
			<point x="363" y="158" type="curve" smooth="yes"/>
			<point x="363" y="252"/>
			<point x="333" y="306"/>
			<point x="280" y="306" type="curve" smooth="yes"/>
			<point x="239" y="306"/>
			<point x="219" y="275"/>
			<point x="219" y="209" type="curve"/>
			<point x="280" y="209"/>
			<point x="300" y="199"/>
			<point x="300" y="171" type="curve" smooth="yes"/>
			<point x="300" y="141"/>
			<point x="278" y="129"/>
			<point x="223" y="129" type="curve" smooth="yes"/>
			<point x="163" y="129"/>
			<point x="147" y="142"/>
			<point x="147" y="196" type="curve" smooth="yes"/>
			<point x="147" y="466" type="line" smooth="yes"/>
			<point x="147" y="532"/>
			<point x="167" y="554"/>
			<point x="237" y="554" type="curve" smooth="yes"/>
			<point x="296" y="554"/>
			<point x="320" y="539"/>
			<point x="341" y="482" type="curve" smooth="yes"/>
			<point x="522" y="0" type="line"/>
			<point x="624" y="0" type="line"/>
			<point x="624" y="824" type="line"/>
			<point x="555" y="824" type="line"/>
			<point x="555" y="113" type="line"/>
			<point x="400" y="527" type="line" smooth="yes"/>
			<point x="350" y="661"/>
			<point x="318" y="692"/>
			<point x="228" y="692" type="curve" smooth="yes"/>
			<point x="120" y="692"/>
			<point x="78" y="640"/>
			<point x="78" y="479" type="curve" smooth="yes"/>
			<point x="78" y="183" type="line" smooth="yes"/>
			<point x="78" y="45"/>
			<point x="123" y="-10"/>
		</contour>
	</outline>
</glyph>
<glyph name="circledCa-hmnp" format="2">
	<unicode hex="1E14F"/>
	<advance width="810"/>
	<outline>
		<contour>
			<point x="405" y="-10" type="curve" smooth="yes"/>
			<point x="615" y="-10"/>
			<point x="750" y="129"/>
			<point x="750" y="345" type="curve" smooth="yes"/>
			<point x="750" y="561"/>
			<point x="615" y="700"/>
			<point x="405" y="700" type="curve" smooth="yes"/>
			<point x="195" y="700"/>
			<point x="60" y="561"/>
			<point x="60" y="345" type="curve" smooth="yes"/>
			<point x="60" y="129"/>
			<point x="195" y="-10"/>
		</contour>
		<contour>
			<point x="344" y="138" type="curve" smooth="yes"/>
			<point x="421" y="138"/>
			<point x="450" y="179"/>
			<point x="450" y="295" type="curve" smooth="yes"/>
			<point x="450" y="399"/>
			<point x="419" y="442"/>
			<point x="344" y="442" type="curve" smooth="yes"/>
			<point x="299" y="442" type="line"/>
			<point x="299" y="542" type="line"/>
			<point x="251" y="542" type="line"/>
			<point x="251" y="355" type="line"/>
			<point x="346" y="355" type="line" smooth="yes"/>
			<point x="391" y="355"/>
			<point x="402" y="341"/>
			<point x="402" y="287" type="curve" smooth="yes"/>
			<point x="402" y="236"/>
			<point x="392" y="228"/>
			<point x="341" y="228" type="curve" smooth="yes"/>
			<point x="290" y="228"/>
			<point x="279" y="233"/>
			<point x="279" y="251" type="curve" smooth="yes"/>
			<point x="279" y="267"/>
			<point x="289" y="271"/>
			<point x="336" y="271" type="curve"/>
			<point x="336" y="308"/>
			<point x="323" y="326"/>
			<point x="296" y="326" type="curve" smooth="yes"/>
			<point x="260" y="326"/>
			<point x="238" y="298"/>
			<point x="238" y="245" type="curve" smooth="yes"/>
			<point x="238" y="174"/>
			<point x="271" y="138"/>
		</contour>
		<contour>
			<point x="405" y="54" type="curve" smooth="yes"/>
			<point x="232" y="54"/>
			<point x="122" y="167"/>
			<point x="122" y="345" type="curve" smooth="yes"/>
			<point x="122" y="523"/>
			<point x="232" y="636"/>
			<point x="405" y="636" type="curve" smooth="yes"/>
			<point x="578" y="636"/>
			<point x="688" y="523"/>
			<point x="688" y="345" type="curve" smooth="yes"/>
			<point x="688" y="167"/>
			<point x="578" y="54"/>
		</contour>
		<contour>
			<point x="516" y="143" type="line"/>
			<point x="564" y="143" type="line"/>
			<point x="564" y="439" type="line" smooth="yes"/>
			<point x="564" y="518"/>
			<point x="530" y="556"/>
			<point x="462" y="556" type="curve" smooth="yes"/>
			<point x="396" y="556"/>
			<point x="369" y="522"/>
			<point x="369" y="439" type="curve" smooth="yes"/>
			<point x="369" y="397" type="line"/>
			<point x="409" y="397" type="line"/>
			<point x="409" y="426" type="line" smooth="yes"/>
			<point x="409" y="455"/>
			<point x="424" y="466"/>
			<point x="462" y="466" type="curve" smooth="yes"/>
			<point x="501" y="466"/>
			<point x="516" y="455"/>
			<point x="516" y="425" type="curve" smooth="yes"/>
		</contour>
	</outline>
</glyph>
